<svg xmlns="http://www.w3.org/2000/svg" viewBox="0 0 800 800"><defs><style>.cls-1,.cls-3{fill:none;stroke-miterlimit:10;}.cls-1{stroke:#fff;}.cls-2{fill:#fff;}.cls-3{stroke:#ffec8f;}</style></defs><g id="Layer_2" data-name="Layer 2"><path class="cls-1" d="M356.57,731.8c.22-29.19,1.8-53.68,3.44-72.23,2.19-24.74,4.1-34.32,10.32-44.72,8-13.3,18.91-21.12,32.67-31,12.93-9.24,23.71-14.57,36.12-20.64C449.49,558.19,468,549.73,489,540.9c10.82-4.55,18.42-7.56,25.8-15.48,6.86-7.35,9.88-15,12-20.64,5.91-15.4,5.52-28.73,5.16-37.83-.58-14.7-3.79-25.6-6.88-36.12a202.33,202.33,0,0,0-10.32-27.51,67.33,67.33,0,0,1-22.36,8.6c-6.56,1.23-12.95,2.42-20.64,0a34.81,34.81,0,0,1-15.47-10.32c-4.43-5-4.58-7.93-10.32-20.64-.21-.47-3.58-7.19-10.32-20.64-11.43-22.81-11.06-21.83-12-24.08-4.07-9.3-8.11-18.55-10.32-30.95-2.58-14.51.24-17.08-3.44-31-1.49-5.63-3.28-10.06-6.88-18.92-6.11-15.06-8.17-16.82-10.32-24.07s-2-14.17-1.72-27.52a285.33,285.33,0,0,1,6.88-53.31c3.48-15.82,5.66-20.14,6.88-22.36,3.25-5.9,8.52-11.46,18.92-22.36,7.73-8.1,13.71-13.8,15.48-15.48C451,79,456.94,73.4,463.2,69.68c7.52-4.49,13.85-6.51,25.79-10.32,7.68-2.46,13-4.16,20.64-5.16,9.7-1.28,17.15-.64,24.08,0a157.39,157.39,0,0,1,27.51,5.16c17,4.48,15.42,6.31,27.52,8.6,11.66,2.2,15.6,1,22.36,5.16a39,39,0,0,1,12,12c2.2,3.81,1.48,4.46,3.44,6.88,4.58,5.68,9.73,3.6,15.48,8.6,3.87,3.37,5.35,7.65,6.87,12,2.5,7.19.73,9.08,3.44,15.48,1.81,4.26,4.13,7,6.88,10.32,6.56,7.83,8.94,6.79,12,12,4,6.8,3.59,14.56,3.44,17.19-.44,7.8-3.2,9.36-1.72,13.76s4.51,4,10.32,10.32c2.53,2.74,6.71,7.26,8.6,13.76,1.17,4,.8,8.48,0,17.2-1.06,11.61-2.28,11.41-1.72,15.48,1.3,9.47,7.77,9.87,10.32,18.91,2.65,9.42-3.5,12.05-3.44,25.8,0,12.22,4.92,14.53,5.16,24.08.18,7.39-2.45,17.9-15.48,30.95a44.32,44.32,0,0,1,15.48,5.16,43.19,43.19,0,0,1,13.76,12c7.56,10.7,3,17.92,6.88,29.24,6.91,20,27.78,16.28,34.39,34.39,5.75,15.76-9.4,23.94-3.44,41.28,4.63,13.46,14.51,11.53,22.36,27.52,8.74,17.81,4.28,36.12,3.44,39.55-.79,3.23-5.87,23.32-20.64,34.4-2.17,1.62-4.83,3.29-6.88,6.88-4.1,7.18-2.24,16,0,22.35a27,27,0,0,1-5.16-8.59,28.94,28.94,0,0,1,0-18.92c2.84-8.57,7.44-9.37,12-17.2,2.85-4.84,5.73-12.43,5.16-24.08"/><path class="cls-1" d="M396.12,157.39c-2.08,17.93,2.42,27.37,6.88,32.67,9.56,11.35,22.24,7.15,32.68,20.64,7.08,9.14,4.42,14.57,12,24.08,7.15,8.92,16.78,13.22,24.07,15.47a21.85,21.85,0,0,1,10.32-12c1.49-.77,7.46-3.83,13.76-1.72,7.87,2.63,10.75,11.49,12,15.47,3.44,10.58.82,20-1.72,29.24a90.09,90.09,0,0,1-8.6,20.64,99.11,99.11,0,0,0,6.88,25.8c2.69,6.42,4.09,9.68,6.88,12,9,7.62,20,.05,31,5.16,10.18,4.76,6.72,15.81,15.47,24.08,6,5.67,17.43,10.26,41.28,5.16-29.6,13.74-37.08,26.5-37.84,36.12C560.15,424,573,429.39,571.54,444.59c-1.92,20.12-25.84,25.34-24.07,39.56,1.66,13.36,23.34,13.17,27.51,29.23,3.93,15.12-12.89,24.35-10.32,39.56,2.44,14.42,26.45,26.84,36.12,29.24a15.23,15.23,0,0,1,6.88,3.44c4.71,4.25,5.11,10.73,5.16,12a19.11,19.11,0,0,1-1.72,8.6,19,19,0,0,0,6.88-8.6,19.83,19.83,0,0,0,.08-13.54c0-.09-.06-.16-.08-.21-1.21-3.28-3.66-7-8.6-10.32"/><path class="cls-1" d="M506.19,279.49c-3.3,26.27,2.82,36.6,8.6,41.28,10.79,8.73,24.76,1.24,39.56,10.32,12.22,7.5,7.93,19.49,18.91,29.23,10.67,9.47,26,9.93,37.84,8.6"/><path class="cls-1" d="M528.55,250.25c0,31.46,9.05,44.11,17.2,49.88,12.32,8.72,24.77,3.3,32.67,13.76,8.47,11.2-1,23.73,6.88,37.83,5.73,10.2,17,14.86,25.8,17.2"/><path class="cls-1" d="M612.82,375.8a48.85,48.85,0,0,0-15.48,10.32C595,388.44,584,399.4,583.58,413.64c-.44,16.57,14.06,19.19,13.76,34.39-.31,16.05-16.6,20.49-13.76,32.68,2.34,10,14.49,12,17.2,25.79a27.76,27.76,0,0,1,0,10.32"/><path class="cls-1" d="M452.88,556.38A118.78,118.78,0,0,0,497.59,577c32.31,7.25,73.23-6.55,77.39-8.6"/><path class="cls-1" d="M642.06,509.94c6.3,15.07,4.64,23,1.71,27.52-4.14,6.38-11.95,7.58-13.75,15.48-.14.59-1.27,5.92,1.72,10.32,5.12,7.55,17.65,5.39,18.91,5.16a24.43,24.43,0,0,0,8.6-3.44,30.26,30.26,0,0,1-8.6,6.88,26.87,26.87,0,0,1-12,3.44,24,24,0,0,1-13.76-3.44c-1.53-1-9.65-6-10.32-15.48a19.22,19.22,0,0,1,3.44-12"/><path class="cls-1" d="M673,559.82a34.49,34.49,0,0,1,3.44,13.76,33.1,33.1,0,0,1-1.72,12,32.22,32.22,0,0,1-12,15.47,35.44,35.44,0,0,0,15.48-6.88c2.67-2.09,6.32-5,8.6-10.31a23.78,23.78,0,0,0,1.72-12"/><path class="cls-1" d="M693.65,501.35c-3.52,10.58-2,16.86,0,20.63,3.34,6.27,8.53,6.52,13.76,15.48,2.31,4,5.1,8.74,3.44,13.76-2,6.06-9.13,8.25-10.32,8.6a21.88,21.88,0,0,0,12-1.72c1.9-.88,7.85-3.6,10.32-10.32,2.82-7.7-1.15-14.53-1.72-15.48"/><path class="cls-1" d="M741.8,539.18c-1.43,10.62-5.31,16.89-8.6,20.64-5.19,5.94-9.11,5.86-12,12a22.57,22.57,0,0,0,0,18.91,21.53,21.53,0,0,0,5.16,6.88c-1.5-.58-10.71-4.32-13.76-13.75-2.35-7.24.28-13.67,1.72-17.2a32.44,32.44,0,0,1,8.6-12"/><path class="cls-1" d="M225.86,747.28c-5.28-6.61-13.39-16.34-24.07-27.52s-11.07-10.34-18.92-18.92c-10.92-11.93-21.74-23.74-29.24-41.27-3.93-9.2-3-10.7-6.88-17.2-6.83-11.43-16.61-18.28-24.07-22.36"/><path class="cls-1" d="M296.38,735.24c-3.22-2.62-9.72-7.93-18.92-15.48-5.54-4.54-8.35-6.88-10.32-10.32-2.08-3.62-3-7.41-3.44-18.92-.6-16.94-.55-18.83-1.72-27.51-.7-5.17-3.54-11.77-8.6-20.64-4.3-7.53-6-10.73-6.88-17.2-.66-5.12,2.67-6.81,0-10.32-1.45-1.9-4.12-3.78-6.88-3.44-3.62.46-5.69,4.55-6.88,6.88-1,2-1.49,7.34-1.72,8.6"/><path class="cls-1" d="M243.06,644.09c-5.19-7.19-9.26-13.1-12-17.2-6.47-9.56-9.71-14.35-10.32-15.48-2.83-5.28-3.54-7.85-6.87-10.32-3.1-2.29-5-1.91-8.6-5.16-2.45-2.18-2.54-3.18-5.16-5.16a17.39,17.39,0,0,0-6.88-3.43c-5.81-1.17-10.79,2.47-12,3.43a17.64,17.64,0,0,0-8.6-5.15,21.62,21.62,0,0,0-8.6,0,33.27,33.27,0,0,0-6.88,1.72,14.87,14.87,0,0,0-8.6-3.44,15.38,15.38,0,0,0-10.32,3.44c-2.41,2-3.36,4.25-5.16,8.59a55.6,55.6,0,0,0-3.43,12,9.8,9.8,0,0,0-6.88,0c-2.22.93-3.38,2.6-5.16,5.16a29.69,29.69,0,0,0-3.44,6.88c-1.7,4.36-2.54,6.58-1.72,8.6a6.87,6.87,0,0,0,3.44,3.44,7.68,7.68,0,0,0,6.88,0c3.44-3.44,3.44-3.44,5.16-8.6"/><path class="cls-1" d="M129.56,608c3.43,1.72,11.31,6.34,15.47,8.6A31,31,0,0,0,155.35,620a42.06,42.06,0,0,1-3.44-3.44A52.09,52.09,0,0,1,145,606.25c-.93-1.68-2.14-4-3.44-6.88"/><path class="cls-1" d="M157.07,587.34a142.65,142.65,0,0,0,10.32,12,65.65,65.65,0,0,0,15.48,12"/><path class="cls-1" d="M181.15,590.77a40.7,40.7,0,0,0,8.6,10.32,26.19,26.19,0,0,0,10.32,5.16"/><path class="cls-1" d="M356.57,671.61a137.56,137.56,0,0,1-22.36-13.76,130.31,130.31,0,0,1-18.92-17.2c-7.81-8.72-13.75-15.48-13.76-15.48-3.13-3.57-4.42-5.06-6.87-6.88-4.69-3.46-6.8-3-12-6.88-3.43-2.51-6.61-4.92-6.88-8.6a6.86,6.86,0,0,1,1.72-5.16c2.8-2.7,8.06-1.19,12,0,4.91,1.48,6.15,2.83,13.75,6.88s10.3,4.83,13.09,6.72a21.24,21.24,0,0,1,2.39,1.88,31.26,31.26,0,0,1,6.88,8.6c-6.44-9.46-10-15.2-12-18.92a63.3,63.3,0,0,0-6.95-10.19c-.51-.62-1.05-1.21-1.65-1.85a105.69,105.69,0,0,0-12-10.31c-1.82-1.43-4.16-3.16-6.88-5.16"/><path class="cls-1" d="M385.81,592.49C380,581.34,373.87,575,370.33,571.86s-8.27-6.64-8.6-6.88c-5.72-4.21-7.19-6.32-10.32-6.88a13.3,13.3,0,0,0-8.6,1.72,17.79,17.79,0,0,0-20.64-3.44,21.4,21.4,0,0,0-8.6-1.72c-2.25,0-6.7.17-10.32,3.44a13.05,13.05,0,0,0-3.43,5.16,60.7,60.7,0,0,0-8.6,0c-4.47.31-6.74.49-8.6,1.72-2.44,1.6-3.35,3.94-5.16,8.6-1.88,4.82-1.79,7.62-1.72,8.6.12,1.84.27,3.67,1.72,5.16a6.06,6.06,0,0,0,5.16,1.72c2.26-.35,3.45-2.35,5.16-5.16a14.43,14.43,0,0,0,.81-1.44,11.58,11.58,0,0,0,.91-3.72"/><path class="cls-1" d="M299.82,563.26c4.06,2.83,11,6.86,13.75,8.6,5.1,3.24,7.71,4.67,8.6,5.16,2.75,1.49,5.13,2.63,6.88,3.44"/><path class="cls-1" d="M322.17,556.38c3.35,2.63,7.17,6,10.32,8.6,4.61,3.75,5.2,4.3,6.88,5.16,3.78,1.92,5.5,1.49,8.6,3.44a16.78,16.78,0,0,1,5.16,5.16"/><path class="cls-1" d="M342.81,559.82c2.75,2.36,8.61,5.77,10.32,6.88,2.94,1.9,4.64,2.66,8.6,5.16,2.22,1.4,4,2.62,5.16,3.44"/><path class="cls-1" d="M263.7,680.2c16.95-5.36,41.67-12.7,73.95-20.63"/><path class="cls-1" d="M354.85,559.82l-27.52-31a25.43,25.43,0,0,0-10.32-8.6c-6.52-3-12.81-2.1-15.48-1.72C289.38,520.3,181.39,542.59,34,574a7.55,7.55,0,0,0-4,3,7.81,7.81,0,0,0-1,5,27,27,0,0,0,4.27,12.23c4.54,6.44,36.5,50.27,80.83,110.07a34.78,34.78,0,0,0,32.67,8.6c8.46-2.15,21.55-4.42,37.84-10.32"/><path class="cls-1" d="M31.53,575.3a14.46,14.46,0,0,1-5.16-5.16,15.14,15.14,0,0,1-1.72-8.6c.41-6.71-5.13-73.07-13.76-170.26-.17-3.23,0-8.85,3.44-13.76,4.18-6,11-7.87,13.76-8.6,13.34-3.6,117-16,258-31,1.35-.18,10.45-1.28,17.19,5.16a19.39,19.39,0,0,1,5.16,8.6l5.16,151.35c0,.84,1.55,4.66,0,8.59-1.42,3.64-4.65,5.74-6.88,6.88"/><path class="cls-1" d="M301.94,517.89c2.15-1.11,5.28-3.15,6.66-6.69,1.5-3.82,0-7.53,0-8.35q-2.49-73.52-5-147a18.82,18.82,0,0,0-5-8.35c-6.53-6.26-15.36-5.2-16.67-5C145.31,357,44.83,369,31.9,372.52c-2.62.71-9.28,2.51-13.34,8.35-3.31,4.77-3.49,10.23-3.33,13.37C23.59,488.67,29,553.14,28.56,559.66A14.74,14.74,0,0,0,30.23,568a14,14,0,0,0,5,5"/></g><g id="Layer_3" data-name="Layer 3"><path class="cls-2" d="M53.19,589c-.47-.92-.91-1.85-1.29-2.81a5.54,5.54,0,0,1-.46-1.23c-.08-.62.23-.77.8-1a22.08,22.08,0,0,1,2.91-.72l2.61-.65c1.87-.45,3.75-.89,5.65-1.24,1-.18,1.94-.35,2.91-.49a5.44,5.44,0,0,1,1.45-.13c.83.13,1,.64,1.4,1.25s.9,1.5,1.33,2.26.65,1.38-.36,1.82a8,8,0,0,1-1.21.34c-1.77.49-3.54,1-5.33,1.42s-3.73.72-5.6,1.08a25.76,25.76,0,0,0-2.59.64,2,2,0,0,1-1.78,0,2.44,2.44,0,0,1-.94-1.37c-.15-.46-.88-.26-.73.2a2.73,2.73,0,0,0,2.69,2.15,24.73,24.73,0,0,0,2.62-.7c1-.24,2.12-.39,3.19-.58,2-.34,3.95-.82,5.9-1.34l2.77-.76a4.92,4.92,0,0,0,2-.8c1.27-1.13-.11-2.67-.75-3.76-.75-1.27-1.26-2.63-2.94-2.59a32.57,32.57,0,0,0-6,1c-2.07.43-4.13.94-6.18,1.45l-3.28.81c-.61.16-1.22.3-1.39,1a4.2,4.2,0,0,0,.59,2.33c.39,1,.83,1.9,1.3,2.82.23.43.87,0,.65-.38Z"/><path class="cls-2" d="M75.46,584.45c-.46-.93-.89-1.86-1.27-2.82a5.74,5.74,0,0,1-.44-1.24c-.07-.62.24-.77.81-1a23.87,23.87,0,0,1,2.92-.7l2.61-.62c1.88-.44,3.77-.85,5.66-1.19,1-.18,2-.35,3.06-.48a4.38,4.38,0,0,1,1.53-.07c.65.17.87.72,1.17,1.23.44.76.88,1.51,1.3,2.28s.64,1.38-.37,1.81a10.37,10.37,0,0,1-1.21.34c-1.78.47-3.56,1-5.35,1.37s-3.74.68-5.61,1c-.88.16-1.73.38-2.59.62-.64.17-1.18.37-1.78,0a2.52,2.52,0,0,1-.94-1.38c-.14-.46-.87-.26-.72.2A2.72,2.72,0,0,0,76.91,586a25.78,25.78,0,0,0,2.62-.67c1.06-.23,2.13-.38,3.2-.55,2-.33,4-.79,5.92-1.3l2.78-.73a4.76,4.76,0,0,0,2-.78c1.29-1.12-.09-2.68-.71-3.77-.74-1.28-1.24-2.64-2.92-2.61a32.56,32.56,0,0,0-6,.93c-2.07.42-4.14.91-6.2,1.4l-3.28.78c-.61.15-1.23.29-1.4,1a4.21,4.21,0,0,0,.58,2.33c.38,1,.81,1.91,1.27,2.83.22.43.87.06.65-.37Z"/><path class="cls-2" d="M97.71,578.91c-.45-.93-.87-1.87-1.23-2.84a5.1,5.1,0,0,1-.44-1.24c-.05-.63.26-.76.84-1a24.18,24.18,0,0,1,2.92-.66l2.63-.58c1.88-.42,3.77-.81,5.67-1.12,1.07-.18,2.14-.34,3.21-.46a3.77,3.77,0,0,1,1.38,0c.65.19.87.73,1.16,1.25.42.77.86,1.52,1.27,2.29s.61,1.39-.4,1.81a10.43,10.43,0,0,1-1.22.32c-1.79.45-3.57.91-5.37,1.3s-3.74.63-5.62.95c-.88.15-1.73.36-2.6.58s-1.28.37-1.92-.16a2.61,2.61,0,0,1-.77-1.28.37.37,0,0,0-.72.19,2.7,2.7,0,0,0,2.65,2.2,22.22,22.22,0,0,0,2.62-.64c1.06-.21,2.14-.35,3.21-.5,2-.3,4-.74,5.93-1.22l2.79-.7a4.85,4.85,0,0,0,2-.75c1.29-1.11-.07-2.69-.68-3.78-.72-1.29-1.2-2.66-2.89-2.65a33.46,33.46,0,0,0-6,.86c-2.08.39-4.15.85-6.22,1.32-1.1.24-2.19.48-3.29.74-.61.14-1.23.27-1.41,1a4.22,4.22,0,0,0,.55,2.34c.37,1,.79,1.91,1.24,2.84.21.44.86.06.65-.37Z"/><path class="cls-2" d="M120.06,574.3c-.47-.92-.89-1.85-1.27-2.81a5.28,5.28,0,0,1-.45-1.24c-.07-.62.25-.77.82-1a23.72,23.72,0,0,1,2.91-.7l2.62-.62c1.88-.44,3.76-.85,5.66-1.19,1-.18,2-.35,3.06-.48a4.33,4.33,0,0,1,1.52-.07c.65.17.88.72,1.18,1.23.43.76.88,1.51,1.3,2.28s.63,1.38-.38,1.81a9.37,9.37,0,0,1-1.21.34c-1.78.47-3.55,1-5.35,1.37s-3.73.68-5.61,1c-.87.16-1.73.38-2.59.62a2,2,0,0,1-1.78,0,2.45,2.45,0,0,1-.93-1.38c-.15-.46-.87-.26-.72.2a2.7,2.7,0,0,0,2.67,2.17,24.61,24.61,0,0,0,2.62-.68c1.06-.22,2.13-.37,3.2-.54,2-.33,4-.79,5.91-1.3l2.78-.73a4.8,4.8,0,0,0,2-.78c1.28-1.12-.09-2.68-.72-3.77-.73-1.28-1.23-2.64-2.92-2.61a32.59,32.59,0,0,0-5.95.93c-2.08.42-4.14.91-6.2,1.4-1.09.26-2.19.51-3.28.78-.61.15-1.23.29-1.41,1a4.3,4.3,0,0,0,.58,2.33c.38,1,.81,1.91,1.28,2.83.22.43.86.06.65-.38Z"/><path class="cls-2" d="M142,569.87c-.47-.92-.91-1.85-1.3-2.8a5.73,5.73,0,0,1-.46-1.23c-.07-.63.24-.78.81-1a23.78,23.78,0,0,1,2.91-.72l2.61-.65c1.87-.45,3.75-.88,5.65-1.24,1-.18,1.93-.34,2.9-.48a5.14,5.14,0,0,1,1.46-.14c.83.13,1,.64,1.4,1.25s.9,1.5,1.32,2.26.65,1.38-.35,1.82a9.88,9.88,0,0,1-1.21.35c-1.77.48-3.55,1-5.34,1.42s-3.73.71-5.59,1.07c-.88.17-1.73.4-2.59.64-.64.18-1.17.39-1.78,0a2.47,2.47,0,0,1-.95-1.37c-.15-.45-.87-.26-.72.2a2.7,2.7,0,0,0,2.69,2.15,22.38,22.38,0,0,0,2.61-.7c1.06-.23,2.13-.39,3.19-.57,2-.34,4-.83,5.91-1.35l2.77-.76a4.86,4.86,0,0,0,2-.79c1.28-1.14-.11-2.68-.75-3.77-.74-1.27-1.25-2.63-2.94-2.59a32.46,32.46,0,0,0-5.94,1c-2.08.43-4.13.94-6.19,1.45l-3.27.82c-.61.15-1.23.3-1.4,1a4.18,4.18,0,0,0,.6,2.32c.39,1,.83,1.9,1.3,2.82.22.43.87,0,.65-.38Z"/><path class="cls-2" d="M164.24,565.37c-.47-.92-.89-1.86-1.27-2.82a5.05,5.05,0,0,1-.45-1.23c-.07-.63.25-.77.82-1a23.72,23.72,0,0,1,2.91-.7l2.62-.62c1.88-.43,3.76-.85,5.66-1.19q1.51-.27,3.06-.48a4.33,4.33,0,0,1,1.52-.07c.65.18.88.72,1.18,1.24.43.75.88,1.5,1.3,2.27s.63,1.38-.38,1.81a9.37,9.37,0,0,1-1.21.34c-1.78.47-3.55,1-5.35,1.37s-3.73.68-5.61,1c-.87.16-1.73.38-2.59.62a1.93,1.93,0,0,1-1.78,0,2.45,2.45,0,0,1-.93-1.38c-.15-.46-.87-.26-.72.2a2.7,2.7,0,0,0,2.67,2.17c.88-.09,1.75-.49,2.62-.67,1.06-.23,2.13-.38,3.2-.55,2-.32,4-.79,5.91-1.3l2.78-.73a4.8,4.8,0,0,0,2-.78c1.28-1.12-.09-2.68-.72-3.77-.73-1.28-1.23-2.64-2.92-2.61a34.41,34.41,0,0,0-5.95.93c-2.08.42-4.14.91-6.2,1.4l-3.28.79c-.61.15-1.23.29-1.41,1a4.24,4.24,0,0,0,.58,2.32c.38,1,.81,1.91,1.28,2.84.22.43.86,0,.65-.38Z"/><path class="cls-2" d="M186.48,559.83c-.45-.93-.87-1.87-1.23-2.84a5.36,5.36,0,0,1-.43-1.24c-.06-.62.26-.76.84-1a25.75,25.75,0,0,1,2.92-.66l2.62-.58c1.89-.42,3.77-.81,5.68-1.12,1.06-.18,2.13-.33,3.21-.46a3.56,3.56,0,0,1,1.38,0c.64.18.86.72,1.15,1.25.43.76.87,1.51,1.28,2.28s.6,1.4-.41,1.81a9.93,9.93,0,0,1-1.22.32c-1.78.45-3.56.91-5.36,1.3s-3.75.64-5.62,1c-.89.15-1.74.36-2.6.59s-1.28.36-1.93-.17A2.52,2.52,0,0,1,186,559c-.14-.46-.87-.27-.73.2a2.7,2.7,0,0,0,2.65,2.19,22.37,22.37,0,0,0,2.63-.64c1.06-.21,2.13-.34,3.2-.5,2-.3,4-.74,5.94-1.22l2.78-.7a4.75,4.75,0,0,0,2-.75c1.3-1.1-.06-2.68-.67-3.78-.72-1.29-1.2-2.65-2.89-2.65a34.64,34.64,0,0,0-6,.86c-2.08.39-4.15.85-6.21,1.32-1.1.25-2.2.48-3.29.74-.62.14-1.24.27-1.42,1a4.31,4.31,0,0,0,.55,2.34c.37,1,.79,1.91,1.24,2.85.21.43.86,0,.65-.38Z"/><path class="cls-2" d="M208.83,555.23c-.46-.92-.89-1.86-1.27-2.82a5.48,5.48,0,0,1-.44-1.23c-.07-.63.24-.77.81-1a23.87,23.87,0,0,1,2.92-.7l2.61-.62c1.88-.44,3.77-.85,5.66-1.19q1.53-.27,3.06-.48a4.38,4.38,0,0,1,1.53-.07c.65.18.87.72,1.17,1.24.44.75.88,1.5,1.3,2.27s.64,1.38-.37,1.81a10.37,10.37,0,0,1-1.21.34c-1.78.47-3.56,1-5.35,1.37s-3.74.68-5.61,1c-.88.16-1.73.38-2.59.62a1.93,1.93,0,0,1-1.78,0,2.52,2.52,0,0,1-.94-1.38c-.14-.46-.87-.26-.72.2a2.72,2.72,0,0,0,2.67,2.17,25.78,25.78,0,0,0,2.62-.67c1.06-.23,2.13-.38,3.2-.55,2-.32,4-.79,5.92-1.3l2.78-.73a4.71,4.71,0,0,0,2-.78c1.29-1.12-.09-2.68-.71-3.77-.74-1.28-1.24-2.64-2.92-2.61a33.44,33.44,0,0,0-6,.93c-2.07.42-4.13.91-6.2,1.4l-3.28.78c-.61.16-1.23.29-1.4,1a4.17,4.17,0,0,0,.58,2.33c.38,1,.81,1.91,1.28,2.84.21.43.86,0,.64-.38Z"/><path class="cls-2" d="M230.74,550.79c-.47-.91-.91-1.85-1.29-2.8a5.54,5.54,0,0,1-.46-1.23c-.07-.63.23-.77.8-1a24.24,24.24,0,0,1,2.91-.72l2.61-.64c1.87-.46,3.75-.89,5.65-1.25q1.46-.27,2.91-.48a4.73,4.73,0,0,1,1.45-.13c.83.13,1,.63,1.4,1.24s.9,1.5,1.33,2.26.65,1.38-.35,1.82a10,10,0,0,1-1.22.35c-1.77.49-3.54,1-5.33,1.42s-3.73.72-5.6,1.07c-.88.17-1.73.4-2.59.64a1.93,1.93,0,0,1-1.78,0,2.48,2.48,0,0,1-.94-1.37c-.15-.46-.88-.27-.73.19a2.72,2.72,0,0,0,2.69,2.15,24.67,24.67,0,0,0,2.62-.69c1.05-.24,2.12-.4,3.19-.58,2-.34,4-.82,5.9-1.35l2.77-.76a4.77,4.77,0,0,0,2-.79c1.27-1.13-.11-2.68-.75-3.77-.75-1.27-1.26-2.62-2.94-2.59a34.54,34.54,0,0,0-5.95,1c-2.07.44-4.13,1-6.18,1.46-1.09.27-2.19.53-3.28.81-.61.16-1.22.3-1.39,1a4.17,4.17,0,0,0,.59,2.32c.39,1,.83,1.9,1.31,2.82.22.43.86.05.64-.38Z"/><path class="cls-2" d="M253,546.29c-.46-.92-.89-1.86-1.27-2.82a5.48,5.48,0,0,1-.44-1.23c-.07-.63.24-.77.81-1a23.84,23.84,0,0,1,2.92-.69l2.61-.62c1.88-.44,3.77-.86,5.66-1.2q1.53-.27,3.06-.48a4.15,4.15,0,0,1,1.53-.06c.65.17.87.71,1.17,1.23.44.76.88,1.51,1.31,2.27s.63,1.38-.38,1.81a10.37,10.37,0,0,1-1.21.34c-1.78.47-3.56,1-5.35,1.37s-3.74.69-5.61,1c-.88.16-1.73.39-2.59.62-.64.18-1.18.38-1.78,0a2.55,2.55,0,0,1-.94-1.38c-.14-.46-.87-.27-.72.19a2.72,2.72,0,0,0,2.67,2.17,21.4,21.4,0,0,0,2.62-.67c1.06-.23,2.13-.38,3.2-.55,2-.32,4-.78,5.92-1.29l2.78-.74a4.83,4.83,0,0,0,2-.77c1.29-1.13-.09-2.68-.71-3.78-.74-1.28-1.24-2.63-2.92-2.61a34.37,34.37,0,0,0-6,.93c-2.07.42-4.13.91-6.2,1.41l-3.28.78c-.61.15-1.23.29-1.4,1a4.16,4.16,0,0,0,.58,2.32c.38,1,.81,1.91,1.28,2.84.21.43.86.05.64-.38Z"/><path class="cls-2" d="M275.26,540.75c-.45-.93-.87-1.87-1.23-2.83a5.25,5.25,0,0,1-.44-1.24c0-.63.26-.77.84-1a24.15,24.15,0,0,1,2.92-.65l2.63-.59c1.88-.41,3.77-.81,5.67-1.12,1.07-.17,2.14-.33,3.21-.45a3.77,3.77,0,0,1,1.38,0c.65.18.87.73,1.16,1.25.42.76.86,1.52,1.27,2.29s.61,1.39-.4,1.8a8.77,8.77,0,0,1-1.22.32c-1.79.45-3.57.91-5.37,1.3s-3.74.64-5.62.95c-.88.15-1.73.36-2.6.59s-1.28.36-1.92-.17a2.61,2.61,0,0,1-.77-1.28.37.37,0,0,0-.72.2,2.72,2.72,0,0,0,2.65,2.2c.88-.08,1.75-.47,2.62-.64,1.06-.22,2.14-.35,3.21-.51,2-.3,4-.73,5.93-1.22l2.79-.69a5,5,0,0,0,2-.76c1.29-1.1-.07-2.68-.68-3.78-.72-1.29-1.2-2.65-2.88-2.65a34.37,34.37,0,0,0-6,.86c-2.08.39-4.15.86-6.22,1.32l-3.29.74c-.61.14-1.23.28-1.41,1a4.21,4.21,0,0,0,.55,2.33c.37,1,.79,1.92,1.24,2.85.21.43.86,0,.65-.38Z"/><path class="cls-2" d="M297.61,536.15c-.47-.92-.89-1.86-1.27-2.82a5.51,5.51,0,0,1-.45-1.23c-.07-.63.25-.77.82-1a26.22,26.22,0,0,1,2.91-.7l2.62-.61c1.88-.44,3.76-.86,5.66-1.2,1-.18,2-.34,3.06-.48a4.1,4.1,0,0,1,1.52-.06c.65.17.88.71,1.18,1.23.43.75.88,1.51,1.3,2.27s.63,1.38-.37,1.81a10,10,0,0,1-1.22.34c-1.78.47-3.55,1-5.35,1.37s-3.73.68-5.61,1c-.87.16-1.73.39-2.59.62a1.93,1.93,0,0,1-1.78,0,2.51,2.51,0,0,1-.93-1.39c-.15-.45-.87-.26-.72.2a2.7,2.7,0,0,0,2.67,2.17,22.37,22.37,0,0,0,2.62-.67c1.06-.23,2.13-.38,3.2-.55,2-.32,4-.78,5.91-1.29l2.78-.74a4.93,4.93,0,0,0,2-.77c1.28-1.13-.09-2.68-.72-3.78-.73-1.28-1.23-2.63-2.92-2.61a34.41,34.41,0,0,0-5.95.93c-2.08.42-4.14.91-6.2,1.4l-3.28.79c-.61.15-1.23.29-1.41,1a4.33,4.33,0,0,0,.58,2.32c.39,1,.81,1.91,1.28,2.84.22.43.86.05.65-.38Z"/><path class="cls-2" d="M63.84,599.73a2.71,2.71,0,0,0,2,1.88,4.26,4.26,0,0,0,1.8-.26l3.95-1a36.36,36.36,0,0,0,4.17-1.06c.89-.35,1.45-1.12,1-2-.31-.58-.69-1.13-1-1.7-.84-1.4-1.66-2.82-2.52-4.21A2.43,2.43,0,0,0,71.31,590a6.64,6.64,0,0,0-1.93.2c-2.58.5-5.18,1.06-7.73,1.72-2,.51-.51,2.69.08,3.82.86,1.65,1.75,3.3,2.67,4.92a.38.38,0,0,0,.65-.38c-.65-1.14-1.28-2.3-1.9-3.46-.36-.68-.73-1.36-1.07-2-.2-.38-.82-1.27-.73-1.73s1.92-.73,2.33-.82c1.34-.31,2.69-.62,4-.91A15,15,0,0,1,71,590.7c1,0,1.34.72,1.77,1.44s.71,1.18,1.06,1.77c.68,1.14,1.34,2.28,2,3.4.2.32.23.31.09.75s-.42.56-.91.69l-1.73.43-.87.22-4,1-1.26.31a4.46,4.46,0,0,1-1,.22,1.85,1.85,0,0,1-1.68-1.37c-.16-.45-.89-.25-.73.2Z"/><path class="cls-2" d="M79.81,596.54a2.71,2.71,0,0,0,2,1.88,4.22,4.22,0,0,0,1.79-.26c1.32-.34,2.63-.65,4-1a32.23,32.23,0,0,0,4.17-1.06c.89-.34,1.46-1.11,1-2-.31-.58-.69-1.14-1-1.7-.84-1.4-1.65-2.82-2.51-4.21a2.42,2.42,0,0,0-1.84-1.41,7,7,0,0,0-1.94.19c-2.58.5-5.18,1.06-7.73,1.73-2,.51-.5,2.68.08,3.81Q79,595,80.36,597.42a.37.37,0,0,0,.65-.37c-.65-1.15-1.28-2.3-1.9-3.46L78,591.54c-.2-.39-.81-1.28-.72-1.73s1.92-.73,2.32-.83c1.35-.3,2.69-.61,4-.9a15.09,15.09,0,0,1,3.25-.58c1,0,1.34.73,1.77,1.44s.71,1.18,1.06,1.78c.68,1.13,1.34,2.27,2,3.4.2.32.23.3.1.75s-.43.56-.91.69l-1.73.43-.88.21-3.95,1-1.26.31a4,4,0,0,1-1,.23,1.86,1.86,0,0,1-1.68-1.37c-.16-.45-.88-.26-.72.2Z"/><path class="cls-2" d="M96.76,592.33a2.69,2.69,0,0,0,2,1.88,4.22,4.22,0,0,0,1.79-.26l4-1a35.84,35.84,0,0,0,4.17-1.06c.89-.35,1.46-1.12,1-2-.31-.58-.69-1.13-1-1.7-.84-1.4-1.65-2.82-2.51-4.21a2.43,2.43,0,0,0-1.84-1.4,6.34,6.34,0,0,0-1.94.19c-2.58.5-5.18,1.06-7.73,1.72-2,.51-.5,2.69.08,3.82.86,1.65,1.75,3.3,2.67,4.92a.38.38,0,0,0,.65-.38c-.65-1.14-1.28-2.3-1.9-3.46-.36-.68-.72-1.36-1.07-2-.2-.38-.81-1.27-.72-1.73s1.92-.73,2.32-.82c1.35-.31,2.69-.62,4-.91a15.07,15.07,0,0,1,3.25-.57c1,0,1.34.72,1.77,1.44s.71,1.18,1.06,1.77c.68,1.14,1.34,2.28,2,3.4.2.32.23.31.1.75s-.43.56-.91.69l-1.73.43-.88.22-4,1-1.26.31a4.51,4.51,0,0,1-1,.22,1.86,1.86,0,0,1-1.69-1.37c-.16-.45-.88-.25-.72.2Z"/><path class="cls-2" d="M112.72,589.14a2.71,2.71,0,0,0,2,1.88,4.29,4.29,0,0,0,1.8-.26c1.31-.34,2.63-.65,3.94-1a32.79,32.79,0,0,0,4.18-1.06c.89-.34,1.45-1.11,1-2-.31-.58-.7-1.14-1-1.7-.83-1.4-1.65-2.82-2.51-4.21a2.42,2.42,0,0,0-1.84-1.41,7,7,0,0,0-1.93.19c-2.59.5-5.19,1.06-7.74,1.73-2,.51-.5,2.68.09,3.81q1.27,2.49,2.67,4.92a.37.37,0,0,0,.64-.37c-.65-1.15-1.27-2.3-1.89-3.46-.37-.68-.73-1.37-1.08-2.05-.19-.39-.81-1.28-.72-1.73s1.92-.73,2.32-.82c1.35-.31,2.69-.62,4-.91a15.82,15.82,0,0,1,3.26-.58c1,0,1.33.73,1.77,1.44l1.06,1.78c.67,1.13,1.34,2.27,2,3.4.2.32.23.3.1.75s-.42.56-.91.69l-1.73.43-.88.21-3.94,1c-.42.11-.85.2-1.26.32a4.75,4.75,0,0,1-1,.22,1.87,1.87,0,0,1-1.69-1.37c-.16-.45-.88-.26-.72.2Z"/><path class="cls-2" d="M127.68,586a2.73,2.73,0,0,0,2,1.88,4.14,4.14,0,0,0,1.8-.27l3.94-1a32.79,32.79,0,0,0,4.18-1.06c.89-.34,1.45-1.11,1-2-.31-.58-.7-1.13-1-1.69-.84-1.41-1.66-2.82-2.52-4.21a2.4,2.4,0,0,0-1.84-1.41,6.63,6.63,0,0,0-1.93.19c-2.58.5-5.19,1.06-7.73,1.72-2,.52-.51,2.69.08,3.82.86,1.66,1.74,3.3,2.67,4.92a.38.38,0,0,0,.65-.38c-.66-1.14-1.28-2.3-1.9-3.45-.37-.69-.73-1.37-1.08-2.06-.19-.38-.81-1.27-.72-1.73s1.92-.72,2.33-.82l4-.91a15.59,15.59,0,0,1,3.25-.57c1,0,1.34.72,1.77,1.44s.71,1.18,1.06,1.77c.67,1.14,1.34,2.28,2,3.41.21.32.23.3.1.74s-.42.57-.91.7l-1.73.43-.88.21-3.94,1-1.26.31a4.07,4.07,0,0,1-1,.23,1.87,1.87,0,0,1-1.68-1.37c-.16-.45-.89-.26-.73.2Z"/><path class="cls-2" d="M143.65,581.76a2.68,2.68,0,0,0,2,1.88,4.26,4.26,0,0,0,1.8-.26l4-1a36.36,36.36,0,0,0,4.17-1.06c.89-.34,1.45-1.12,1-2-.31-.58-.69-1.13-1-1.7-.84-1.4-1.66-2.82-2.52-4.21a2.39,2.39,0,0,0-1.84-1.4,6.31,6.31,0,0,0-1.93.19c-2.58.5-5.18,1.06-7.73,1.72-2,.52-.51,2.69.08,3.82.86,1.65,1.75,3.3,2.67,4.92a.38.38,0,0,0,.65-.38c-.65-1.14-1.28-2.3-1.9-3.46-.36-.68-.73-1.36-1.07-2-.2-.38-.82-1.27-.73-1.73s1.92-.73,2.33-.82c1.34-.31,2.69-.62,4-.91a15,15,0,0,1,3.25-.57c1,0,1.34.72,1.77,1.44s.71,1.18,1.06,1.77c.68,1.14,1.34,2.28,2,3.4.2.32.23.31.09.75s-.42.56-.91.69-1.15.29-1.73.43l-.87.22-3.95,1-1.26.31a4.46,4.46,0,0,1-1,.22,1.84,1.84,0,0,1-1.68-1.37c-.16-.45-.89-.25-.72.2Z"/><path class="cls-2" d="M159.6,578.57a2.68,2.68,0,0,0,2,1.88,4.24,4.24,0,0,0,1.8-.26l3.95-1a34.44,34.44,0,0,0,4.17-1.07c.89-.34,1.45-1.11,1-2-.31-.58-.69-1.14-1-1.7-.84-1.4-1.66-2.82-2.52-4.21a2.41,2.41,0,0,0-1.84-1.41,7,7,0,0,0-1.93.19c-2.58.51-5.18,1.06-7.73,1.73-2,.51-.51,2.69.08,3.81.86,1.66,1.75,3.31,2.67,4.93a.38.38,0,0,0,.65-.38c-.65-1.14-1.28-2.3-1.9-3.46-.36-.68-.73-1.36-1.07-2-.2-.39-.82-1.28-.73-1.73s1.92-.73,2.33-.82c1.34-.31,2.69-.62,4-.91a15,15,0,0,1,3.25-.57c1,0,1.34.72,1.77,1.43s.71,1.19,1.06,1.78c.68,1.13,1.34,2.27,2,3.4.2.32.23.3.09.75s-.42.56-.91.69L169,578l-.87.21-3.95,1c-.42.1-.84.19-1.26.31a4.46,4.46,0,0,1-1,.22,1.85,1.85,0,0,1-1.68-1.37c-.16-.45-.89-.26-.72.2Z"/><path class="cls-2" d="M175.56,575.38a2.71,2.71,0,0,0,2,1.88,4.23,4.23,0,0,0,1.79-.27l3.95-1a35.84,35.84,0,0,0,4.17-1.06c.89-.34,1.46-1.11,1-2-.31-.58-.69-1.13-1-1.69-.84-1.41-1.65-2.82-2.51-4.21a2.42,2.42,0,0,0-1.84-1.41,6.6,6.6,0,0,0-1.93.19c-2.59.5-5.19,1.06-7.74,1.72-2,.52-.5,2.69.08,3.82q1.29,2.49,2.67,4.92a.38.38,0,0,0,.65-.38c-.65-1.14-1.28-2.3-1.9-3.46-.36-.68-.72-1.36-1.07-2-.2-.38-.81-1.27-.72-1.73s1.92-.72,2.32-.82l4-.91a15.7,15.7,0,0,1,3.25-.57c1,0,1.34.72,1.77,1.44s.71,1.18,1.06,1.77c.68,1.14,1.34,2.28,2,3.4.2.33.23.31.1.75s-.43.57-.91.7l-1.73.42-.88.22-3.95,1-1.26.31a4,4,0,0,1-.95.22,1.85,1.85,0,0,1-1.69-1.36c-.16-.45-.88-.26-.72.2Z"/><path class="cls-2" d="M190.52,572.2a2.71,2.71,0,0,0,2,1.87,4.29,4.29,0,0,0,1.8-.26l3.94-1a36.53,36.53,0,0,0,4.18-1.06c.89-.34,1.45-1.12,1-2-.31-.58-.7-1.13-1-1.7-.83-1.4-1.65-2.82-2.51-4.21a2.43,2.43,0,0,0-1.84-1.4,6.31,6.31,0,0,0-1.93.19c-2.59.5-5.19,1.06-7.74,1.72-2,.52-.5,2.69.09,3.82.86,1.65,1.74,3.3,2.67,4.92a.37.37,0,0,0,.64-.38c-.65-1.14-1.27-2.3-1.89-3.46-.37-.68-.73-1.36-1.08-2-.19-.38-.81-1.27-.72-1.73s1.92-.73,2.32-.82c1.35-.31,2.69-.62,4-.91a15.16,15.16,0,0,1,3.26-.57c1,0,1.33.72,1.77,1.44s.7,1.18,1.06,1.77c.67,1.14,1.34,2.28,2,3.4.2.33.23.31.1.75s-.42.56-.91.69-1.15.29-1.73.43l-.88.22-3.94,1-1.26.31a4.6,4.6,0,0,1-1,.22,1.86,1.86,0,0,1-1.69-1.36c-.16-.46-.88-.26-.72.2Z"/><path class="cls-2" d="M207.47,568a2.73,2.73,0,0,0,2,1.88,4.29,4.29,0,0,0,1.8-.26c1.31-.34,2.63-.65,3.94-1a32.79,32.79,0,0,0,4.18-1.06c.89-.34,1.45-1.11,1-2-.31-.58-.7-1.14-1-1.7-.83-1.4-1.65-2.82-2.51-4.21a2.42,2.42,0,0,0-1.84-1.41,7,7,0,0,0-1.93.19c-2.59.5-5.19,1.06-7.73,1.73-2,.51-.51,2.68.08,3.81.86,1.66,1.74,3.3,2.67,4.92a.37.37,0,0,0,.64-.37c-.65-1.15-1.27-2.3-1.89-3.46-.37-.68-.73-1.37-1.08-2-.19-.39-.81-1.28-.72-1.73s1.92-.73,2.32-.83c1.35-.3,2.69-.61,4-.9a15.18,15.18,0,0,1,3.26-.58c1,0,1.33.73,1.77,1.44l1.06,1.78c.67,1.13,1.34,2.27,2,3.4.2.32.23.3.1.75s-.42.56-.91.69l-1.73.43-.88.21-3.94,1-1.26.31a4.07,4.07,0,0,1-1,.23,1.87,1.87,0,0,1-1.69-1.37c-.16-.45-.88-.26-.72.2Z"/><path class="cls-2" d="M223.43,564.8a2.71,2.71,0,0,0,2,1.87,4.29,4.29,0,0,0,1.8-.26l3.95-1a36.9,36.9,0,0,0,4.17-1.06c.89-.34,1.45-1.11,1-2-.31-.58-.7-1.13-1-1.7-.84-1.4-1.66-2.82-2.52-4.21a2.41,2.41,0,0,0-1.84-1.4,6.63,6.63,0,0,0-1.93.19c-2.58.5-5.18,1.06-7.73,1.72-2,.52-.51,2.69.08,3.82.86,1.65,1.74,3.3,2.67,4.92a.38.38,0,0,0,.65-.38c-.66-1.14-1.28-2.3-1.9-3.46-.37-.68-.73-1.36-1.08-2.05-.19-.38-.81-1.27-.72-1.73s1.92-.73,2.33-.82l4-.91a15,15,0,0,1,3.25-.57c1,0,1.34.72,1.77,1.44s.71,1.18,1.06,1.77c.67,1.14,1.34,2.28,2,3.4.2.33.22.31.09.75s-.42.57-.91.69-1.15.29-1.73.43l-.88.22-3.94,1-1.26.31a3.94,3.94,0,0,1-1,.22,1.84,1.84,0,0,1-1.68-1.36c-.16-.46-.89-.26-.73.2Z"/><path class="cls-2" d="M239.4,561.6a2.68,2.68,0,0,0,2,1.88,4.24,4.24,0,0,0,1.8-.26l4-1a36.36,36.36,0,0,0,4.17-1.06c.89-.35,1.45-1.12,1-2-.31-.58-.69-1.13-1-1.7-.84-1.4-1.66-2.82-2.52-4.21a2.41,2.41,0,0,0-1.84-1.41,7,7,0,0,0-1.93.19c-2.58.51-5.18,1.06-7.73,1.73-2,.51-.51,2.69.08,3.82.86,1.65,1.75,3.3,2.67,4.92a.38.38,0,0,0,.65-.38c-.65-1.14-1.28-2.3-1.9-3.46-.36-.68-.73-1.36-1.07-2-.2-.38-.82-1.28-.73-1.73s1.92-.73,2.33-.82c1.34-.31,2.69-.62,4-.91a15,15,0,0,1,3.25-.57c1,0,1.34.72,1.77,1.43s.71,1.19,1.06,1.78c.68,1.13,1.34,2.28,2,3.4.2.32.23.31.09.75s-.42.56-.91.69l-1.73.43-.87.22-3.95,1-1.26.31a4.46,4.46,0,0,1-1,.22,1.85,1.85,0,0,1-1.68-1.37c-.16-.45-.89-.25-.72.2Z"/><path class="cls-2" d="M254.36,558.42a2.71,2.71,0,0,0,2,1.88,4.22,4.22,0,0,0,1.79-.26c1.32-.34,2.63-.65,3.95-1a34,34,0,0,0,4.17-1.07c.89-.34,1.46-1.11,1-2-.3-.58-.69-1.14-1-1.7-.84-1.4-1.65-2.82-2.51-4.21a2.44,2.44,0,0,0-1.84-1.41,7,7,0,0,0-1.93.19c-2.59.5-5.19,1.06-7.74,1.73-2,.51-.5,2.68.08,3.81.86,1.66,1.75,3.31,2.67,4.92a.37.37,0,0,0,.65-.37c-.65-1.15-1.28-2.3-1.9-3.46-.36-.68-.72-1.36-1.07-2.05-.2-.39-.81-1.28-.72-1.73s1.92-.73,2.32-.82c1.35-.31,2.69-.62,4-.91a15.05,15.05,0,0,1,3.26-.57c1,0,1.33.72,1.76,1.43s.71,1.18,1.06,1.78c.68,1.13,1.34,2.27,2,3.4.2.32.23.3.1.75s-.43.56-.91.69l-1.73.43-.88.21-3.95,1c-.42.1-.84.19-1.26.31a4.51,4.51,0,0,1-1,.22,1.86,1.86,0,0,1-1.69-1.37c-.16-.45-.88-.26-.72.2Z"/><path class="cls-2" d="M270.32,555.23a2.75,2.75,0,0,0,2,1.88,4.29,4.29,0,0,0,1.8-.27l3.94-1a36.53,36.53,0,0,0,4.18-1.06c.89-.34,1.45-1.11,1-2-.31-.58-.7-1.13-1-1.69-.83-1.41-1.65-2.82-2.51-4.21a2.42,2.42,0,0,0-1.84-1.41,6.63,6.63,0,0,0-1.93.19c-2.59.5-5.19,1.06-7.74,1.72-2,.52-.5,2.69.09,3.82.86,1.66,1.74,3.3,2.67,4.92a.37.37,0,0,0,.64-.38c-.65-1.14-1.27-2.3-1.89-3.46-.37-.68-.73-1.36-1.08-2-.19-.38-.81-1.27-.72-1.73s1.92-.72,2.32-.82l4-.91a15.16,15.16,0,0,1,3.26-.57c1,0,1.33.72,1.77,1.44s.7,1.18,1.06,1.77c.67,1.14,1.34,2.28,2,3.4.2.33.23.31.1.75s-.42.57-.91.7l-1.73.42-.88.22-3.94,1-1.26.31a4,4,0,0,1-1,.22A1.86,1.86,0,0,1,271,555c-.16-.46-.88-.26-.72.2Z"/><path class="cls-2" d="M286.27,551a2.71,2.71,0,0,0,2,1.88,4.29,4.29,0,0,0,1.8-.26l3.94-1a36.53,36.53,0,0,0,4.18-1.06c.89-.35,1.45-1.12,1-2-.31-.58-.7-1.13-1-1.7-.83-1.4-1.65-2.82-2.51-4.21a2.46,2.46,0,0,0-1.84-1.41,6.64,6.64,0,0,0-1.93.2c-2.59.5-5.19,1.06-7.73,1.72-2,.51-.51,2.69.08,3.82.86,1.65,1.74,3.3,2.67,4.92a.38.38,0,0,0,.65-.38c-.66-1.14-1.28-2.3-1.9-3.46-.37-.68-.73-1.36-1.08-2.05-.19-.38-.81-1.28-.72-1.73s1.92-.73,2.32-.82c1.35-.31,2.7-.62,4-.91a15.16,15.16,0,0,1,3.26-.57c1,0,1.33.72,1.77,1.44l1.06,1.77c.67,1.14,1.34,2.28,2,3.4.2.32.23.31.1.75s-.42.56-.91.69l-1.73.43-.88.22-3.94,1-1.26.31a4.6,4.6,0,0,1-1,.22,1.87,1.87,0,0,1-1.69-1.37c-.16-.45-.88-.25-.72.2Z"/><path class="cls-2" d="M302.23,547.84a2.73,2.73,0,0,0,2,1.88,4.29,4.29,0,0,0,1.8-.26c1.31-.34,2.63-.65,3.95-1a33.07,33.07,0,0,0,4.17-1.06c.89-.34,1.45-1.11,1-2-.31-.58-.7-1.14-1-1.7-.84-1.4-1.66-2.82-2.52-4.21a2.4,2.4,0,0,0-1.84-1.41,7,7,0,0,0-1.93.19c-2.58.5-5.18,1.06-7.73,1.73-2,.51-.51,2.68.08,3.81.86,1.66,1.74,3.3,2.67,4.92a.38.38,0,0,0,.65-.38c-.66-1.14-1.28-2.29-1.9-3.45-.37-.68-.73-1.37-1.08-2-.19-.39-.81-1.28-.72-1.73s1.92-.73,2.33-.83l4-.91a15.59,15.59,0,0,1,3.25-.57c1,0,1.34.73,1.77,1.44s.71,1.18,1.06,1.78c.67,1.13,1.34,2.27,2,3.4.2.32.22.3.09.75s-.42.56-.91.69l-1.73.43-.88.21-3.94,1-1.26.31a4,4,0,0,1-1,.23,1.85,1.85,0,0,1-1.68-1.37c-.16-.45-.89-.26-.73.2Z"/><path class="cls-2" d="M76,610.59a2.71,2.71,0,0,0,2,1.88,4.23,4.23,0,0,0,1.79-.27l4-1a35.84,35.84,0,0,0,4.17-1.06c.89-.34,1.46-1.11,1-2-.31-.58-.69-1.13-1-1.69-.84-1.41-1.65-2.82-2.51-4.21a2.42,2.42,0,0,0-1.84-1.41,6.67,6.67,0,0,0-1.94.19c-2.58.5-5.18,1.06-7.73,1.72-2,.52-.5,2.69.08,3.82q1.29,2.49,2.67,4.92a.38.38,0,0,0,.65-.38c-.65-1.14-1.28-2.3-1.9-3.46-.36-.68-.72-1.36-1.07-2-.2-.38-.81-1.27-.72-1.73s1.92-.72,2.32-.82l4-.91a15.7,15.7,0,0,1,3.25-.57c1,0,1.34.72,1.77,1.44s.71,1.18,1.06,1.77c.68,1.14,1.34,2.28,2,3.4.2.33.23.31.1.75s-.43.57-.91.7l-1.73.42-.88.22-4,1-1.26.31a3.94,3.94,0,0,1-1,.22,1.85,1.85,0,0,1-1.68-1.36c-.16-.45-.88-.26-.72.2Z"/><path class="cls-2" d="M91.94,607.39a2.71,2.71,0,0,0,2,1.88,4.29,4.29,0,0,0,1.8-.26l3.94-1a36.53,36.53,0,0,0,4.18-1.06c.88-.35,1.45-1.12,1-2-.31-.58-.7-1.13-1-1.7-.83-1.4-1.65-2.82-2.51-4.21a2.46,2.46,0,0,0-1.84-1.41,6.64,6.64,0,0,0-1.93.2c-2.59.5-5.19,1.06-7.74,1.72-2,.51-.5,2.69.08,3.82.86,1.65,1.75,3.3,2.68,4.92a.37.37,0,0,0,.64-.38c-.65-1.14-1.27-2.3-1.9-3.46-.36-.68-.72-1.36-1.07-2.05-.19-.38-.81-1.27-.72-1.73s1.92-.73,2.32-.82c1.35-.31,2.69-.62,4-.91a15.16,15.16,0,0,1,3.26-.57c1,0,1.33.72,1.77,1.44s.7,1.18,1.06,1.77c.67,1.14,1.34,2.28,2,3.4.2.32.23.31.1.75s-.43.56-.91.69l-1.73.43-.88.22-3.94,1-1.26.31a4.75,4.75,0,0,1-1,.22,1.87,1.87,0,0,1-1.69-1.37c-.16-.45-.88-.25-.72.2Z"/><path class="cls-2" d="M108.89,603.19a2.73,2.73,0,0,0,2,1.88,4.29,4.29,0,0,0,1.8-.27l3.94-1a36.53,36.53,0,0,0,4.18-1.06c.89-.34,1.45-1.11,1-2-.31-.58-.7-1.13-1-1.69-.83-1.41-1.65-2.82-2.51-4.21a2.42,2.42,0,0,0-1.84-1.41,6.63,6.63,0,0,0-1.93.19c-2.59.5-5.19,1.06-7.74,1.72-2,.52-.5,2.69.09,3.82q1.27,2.49,2.67,4.92a.37.37,0,0,0,.64-.38c-.65-1.14-1.27-2.3-1.89-3.46-.37-.68-.73-1.36-1.08-2.05-.19-.38-.81-1.27-.72-1.73s1.92-.72,2.32-.82l4-.91a15.8,15.8,0,0,1,3.26-.57c1,0,1.33.72,1.77,1.44s.7,1.18,1.06,1.77c.67,1.14,1.34,2.28,2,3.4.2.33.23.31.1.75s-.42.57-.91.7l-1.73.42-.88.22-3.94,1-1.26.31a3.7,3.7,0,0,1-1,.22,1.86,1.86,0,0,1-1.69-1.36c-.16-.45-.88-.26-.72.2Z"/><path class="cls-2" d="M187.69,585.23a2.71,2.71,0,0,0,2,1.88,4.29,4.29,0,0,0,1.8-.26c1.31-.34,2.63-.65,3.94-1a34.59,34.59,0,0,0,4.18-1.07c.89-.34,1.45-1.11,1-2-.31-.58-.7-1.14-1-1.7-.83-1.4-1.65-2.82-2.51-4.21a2.44,2.44,0,0,0-1.84-1.41,7,7,0,0,0-1.93.19c-2.59.51-5.19,1.06-7.74,1.73-2,.51-.5,2.69.09,3.81.86,1.66,1.74,3.31,2.67,4.93a.37.37,0,0,0,.64-.38c-.65-1.14-1.27-2.3-1.89-3.46-.37-.68-.73-1.36-1.08-2-.19-.39-.81-1.28-.72-1.73s1.92-.73,2.32-.82c1.35-.31,2.69-.62,4-.91a15.16,15.16,0,0,1,3.26-.57c1,0,1.33.72,1.77,1.43s.7,1.19,1.06,1.78c.67,1.13,1.34,2.27,2,3.4.2.32.23.3.1.75s-.42.56-.91.69l-1.73.43-.88.21-3.94,1c-.42.1-.85.19-1.26.31a4.6,4.6,0,0,1-1,.22,1.87,1.87,0,0,1-1.69-1.37c-.16-.45-.88-.26-.72.2Z"/><path class="cls-2" d="M202.65,583.05a2.73,2.73,0,0,0,2,1.88,4.29,4.29,0,0,0,1.8-.26c1.31-.34,2.63-.65,3.94-1a32.79,32.79,0,0,0,4.18-1.06c.89-.34,1.45-1.11,1-2-.31-.58-.7-1.14-1-1.7-.84-1.4-1.66-2.82-2.52-4.21a2.4,2.4,0,0,0-1.84-1.41,7,7,0,0,0-1.93.19c-2.58.5-5.18,1.06-7.73,1.73-2,.51-.51,2.68.08,3.81.86,1.66,1.74,3.3,2.67,4.92a.38.38,0,0,0,.65-.38c-.66-1.14-1.28-2.29-1.9-3.45-.37-.68-.73-1.37-1.08-2.05-.19-.39-.81-1.28-.72-1.73s1.92-.73,2.33-.83l4-.91a15.59,15.59,0,0,1,3.25-.57c1,0,1.34.73,1.77,1.44s.71,1.18,1.06,1.78c.67,1.13,1.34,2.27,2,3.4.2.32.22.3.09.75s-.42.56-.91.69l-1.73.43-.88.21-3.94,1L206,584a4.07,4.07,0,0,1-1,.23,1.85,1.85,0,0,1-1.68-1.37c-.16-.45-.89-.26-.73.2Z"/><path class="cls-2" d="M219.6,578.84a2.71,2.71,0,0,0,2,1.88,4.29,4.29,0,0,0,1.8-.26l4-1a36.9,36.9,0,0,0,4.17-1.06c.89-.35,1.45-1.12,1-2-.31-.58-.7-1.13-1-1.7-.84-1.4-1.66-2.82-2.52-4.21a2.44,2.44,0,0,0-1.84-1.41,6.64,6.64,0,0,0-1.93.2c-2.58.5-5.18,1.06-7.73,1.72-2,.51-.51,2.69.08,3.82.86,1.65,1.74,3.3,2.67,4.92a.38.38,0,0,0,.65-.38c-.66-1.14-1.28-2.3-1.9-3.46-.37-.68-.73-1.36-1.08-2-.19-.38-.81-1.27-.72-1.73s1.92-.73,2.33-.82c1.34-.31,2.69-.62,4-.91a15,15,0,0,1,3.25-.57c1,0,1.34.72,1.77,1.44s.71,1.18,1.06,1.77c.67,1.14,1.34,2.28,2,3.4.2.32.22.31.09.75s-.42.56-.91.69l-1.73.43-.88.22-3.94,1-1.26.31a4.46,4.46,0,0,1-1,.22,1.85,1.85,0,0,1-1.68-1.37c-.16-.45-.89-.25-.73.2Z"/><path class="cls-2" d="M235.57,575.65a2.7,2.7,0,0,0,2,1.88,4.24,4.24,0,0,0,1.8-.26c1.31-.34,2.63-.65,3.95-1a32.64,32.64,0,0,0,4.17-1.06c.89-.34,1.45-1.11,1-2-.31-.58-.69-1.14-1-1.7-.84-1.4-1.66-2.82-2.52-4.21a2.38,2.38,0,0,0-1.84-1.41,7,7,0,0,0-1.93.19c-2.58.5-5.18,1.06-7.73,1.73-2,.51-.51,2.68.08,3.81q1.29,2.49,2.67,4.92a.37.37,0,0,0,.65-.37c-.65-1.15-1.28-2.3-1.9-3.46-.36-.68-.73-1.37-1.07-2.05-.2-.39-.82-1.28-.73-1.73s1.92-.73,2.33-.83c1.34-.3,2.69-.61,4-.9a15,15,0,0,1,3.25-.58c1,0,1.34.73,1.77,1.44s.71,1.18,1.06,1.78c.68,1.13,1.34,2.27,2,3.4.2.32.23.3.09.75s-.42.56-.91.69l-1.73.43-.87.21-3.95,1-1.26.31a4,4,0,0,1-1,.23,1.85,1.85,0,0,1-1.68-1.37c-.16-.45-.89-.26-.72.2Z"/><path class="cls-2" d="M251.53,572.46a2.71,2.71,0,0,0,2,1.87,4.22,4.22,0,0,0,1.79-.26l3.95-1a35.84,35.84,0,0,0,4.17-1.06c.89-.34,1.46-1.12,1-2-.3-.58-.69-1.13-1-1.7-.84-1.4-1.65-2.82-2.51-4.21a2.43,2.43,0,0,0-1.84-1.4,6.6,6.6,0,0,0-1.93.19c-2.59.5-5.19,1.06-7.74,1.72-2,.52-.5,2.69.08,3.82.86,1.65,1.75,3.3,2.67,4.92a.38.38,0,0,0,.65-.38c-.65-1.14-1.28-2.3-1.9-3.46-.36-.68-.72-1.36-1.07-2-.2-.38-.81-1.27-.72-1.73s1.92-.73,2.32-.82l4-.91a15.05,15.05,0,0,1,3.26-.57c1,0,1.33.72,1.76,1.44s.71,1.18,1.06,1.77c.68,1.14,1.34,2.28,2,3.4.2.33.23.31.1.75s-.43.57-.91.69-1.16.29-1.73.43l-.88.22-4,1-1.26.31a4.51,4.51,0,0,1-.95.22,1.85,1.85,0,0,1-1.69-1.36c-.16-.46-.88-.26-.72.2Z"/><path class="cls-2" d="M266.49,569.27a2.71,2.71,0,0,0,2,1.88,4.29,4.29,0,0,0,1.8-.26l3.94-1a36.53,36.53,0,0,0,4.18-1.06c.89-.35,1.45-1.12,1-2-.31-.58-.7-1.13-1-1.7-.83-1.4-1.65-2.82-2.51-4.21a2.43,2.43,0,0,0-1.84-1.4,6.31,6.31,0,0,0-1.93.19c-2.59.5-5.19,1.06-7.74,1.72-2,.52-.5,2.69.09,3.82.86,1.65,1.74,3.3,2.67,4.92a.37.37,0,0,0,.64-.38c-.65-1.14-1.27-2.3-1.89-3.46-.37-.68-.73-1.36-1.08-2.05-.19-.38-.81-1.27-.72-1.73s1.92-.73,2.32-.82c1.35-.31,2.69-.62,4-.91a15.16,15.16,0,0,1,3.26-.57c1,0,1.33.72,1.77,1.44s.7,1.18,1.06,1.77c.67,1.14,1.34,2.28,2,3.4.2.32.23.31.1.75s-.42.56-.91.69-1.15.29-1.73.43l-.88.22-3.94,1-1.26.31a4.6,4.6,0,0,1-1,.22,1.87,1.87,0,0,1-1.69-1.37c-.16-.45-.88-.25-.72.2Z"/><path class="cls-2" d="M76.14,623.59a2.68,2.68,0,0,0,2,1.87,4.11,4.11,0,0,0,1.8-.26l4-1A36.36,36.36,0,0,0,88,623.17c.89-.34,1.45-1.11,1-2-.31-.58-.69-1.13-1-1.7-.84-1.4-1.66-2.82-2.52-4.2a2.38,2.38,0,0,0-1.84-1.41,6.63,6.63,0,0,0-1.93.19c-2.58.5-5.18,1.06-7.73,1.72-2,.52-.51,2.69.08,3.82q1.29,2.49,2.67,4.92a.38.38,0,0,0,.65-.38c-.65-1.14-1.28-2.3-1.9-3.46-.36-.68-.73-1.36-1.07-2-.2-.38-.82-1.27-.73-1.73s1.92-.73,2.33-.82l4-.91a15,15,0,0,1,3.25-.57c1,0,1.34.72,1.77,1.44s.71,1.18,1.06,1.77c.68,1.14,1.34,2.28,2,3.4.2.33.23.31.09.75s-.42.57-.91.69-1.15.29-1.73.43l-.87.22-3.95,1-1.26.31a3.94,3.94,0,0,1-1,.22,1.84,1.84,0,0,1-1.68-1.36c-.16-.46-.89-.26-.72.2Z"/><path class="cls-2" d="M92.1,620.39a2.69,2.69,0,0,0,2,1.88,4.22,4.22,0,0,0,1.79-.26l3.95-1A35.84,35.84,0,0,0,104,620c.89-.35,1.46-1.12,1-2-.31-.58-.69-1.13-1-1.7-.84-1.4-1.65-2.82-2.51-4.21a2.44,2.44,0,0,0-1.84-1.41,7,7,0,0,0-1.94.19c-2.58.51-5.18,1.07-7.73,1.73-2,.51-.5,2.69.08,3.82.86,1.65,1.75,3.3,2.67,4.92a.38.38,0,0,0,.65-.38c-.65-1.14-1.28-2.3-1.9-3.46-.36-.68-.72-1.36-1.07-2.05-.2-.38-.81-1.28-.72-1.73s1.92-.73,2.32-.82c1.35-.31,2.69-.62,4-.91a15.07,15.07,0,0,1,3.25-.57c1,0,1.34.72,1.77,1.43s.71,1.19,1.06,1.78c.68,1.13,1.34,2.28,2,3.4.2.32.23.31.1.75s-.43.56-.91.69l-1.73.43-.88.22-4,1-1.26.31a4.46,4.46,0,0,1-1,.22,1.86,1.86,0,0,1-1.68-1.37c-.16-.45-.88-.25-.72.2Z"/><path class="cls-2" d="M219.76,591.84a2.71,2.71,0,0,0,2,1.88,4.29,4.29,0,0,0,1.8-.26l3.94-1a36.53,36.53,0,0,0,4.18-1.06c.89-.35,1.45-1.12,1-2-.31-.58-.7-1.13-1-1.7-.83-1.4-1.65-2.82-2.51-4.21a2.44,2.44,0,0,0-1.84-1.41,7,7,0,0,0-1.93.19c-2.59.51-5.19,1.07-7.73,1.73-2,.51-.51,2.69.08,3.82.86,1.65,1.74,3.3,2.67,4.92a.37.37,0,0,0,.64-.38c-.65-1.14-1.27-2.3-1.89-3.46-.37-.68-.73-1.36-1.08-2-.19-.38-.81-1.28-.72-1.73s1.92-.73,2.32-.82c1.35-.31,2.7-.62,4-.91a15.16,15.16,0,0,1,3.26-.57c1,0,1.33.72,1.77,1.43l1.06,1.78c.67,1.13,1.34,2.28,2,3.4.2.32.23.31.1.75s-.42.56-.91.69l-1.73.43-.88.22-3.94,1-1.26.31a4.6,4.6,0,0,1-1,.22,1.87,1.87,0,0,1-1.69-1.37c-.16-.45-.88-.25-.72.2Z"/><path class="cls-2" d="M227.76,603.84a2.71,2.71,0,0,0,2,1.88,4.29,4.29,0,0,0,1.8-.26l3.94-1a36.53,36.53,0,0,0,4.18-1.06c.89-.35,1.45-1.12,1-2-.31-.58-.7-1.13-1-1.7-.83-1.4-1.65-2.82-2.51-4.21a2.44,2.44,0,0,0-1.84-1.41,7,7,0,0,0-1.93.19c-2.59.51-5.19,1.07-7.73,1.73-2,.51-.51,2.69.08,3.82.86,1.65,1.74,3.3,2.67,4.92a.37.37,0,0,0,.64-.38c-.65-1.14-1.27-2.3-1.89-3.46-.37-.68-.73-1.36-1.08-2-.19-.38-.81-1.28-.72-1.73s1.92-.73,2.32-.82c1.35-.31,2.7-.62,4-.91a15.16,15.16,0,0,1,3.26-.57c1,0,1.33.72,1.77,1.43l1.06,1.78c.67,1.13,1.34,2.28,2,3.4.2.32.23.31.1.75s-.42.56-.91.69l-1.73.43-.88.22-3.94,1-1.26.31a4.6,4.6,0,0,1-1,.22,1.87,1.87,0,0,1-1.69-1.37c-.16-.45-.88-.25-.72.2Z"/><path class="cls-2" d="M235.72,588.65a2.73,2.73,0,0,0,2,1.88,4.29,4.29,0,0,0,1.8-.26c1.31-.34,2.63-.65,3.95-1a33.07,33.07,0,0,0,4.17-1.06c.89-.34,1.45-1.11,1-2-.31-.59-.7-1.14-1-1.7-.84-1.41-1.66-2.82-2.52-4.21a2.4,2.4,0,0,0-1.84-1.41,6.63,6.63,0,0,0-1.93.19c-2.58.5-5.18,1.06-7.73,1.72-2,.52-.51,2.69.08,3.82.86,1.66,1.74,3.3,2.67,4.92a.38.38,0,0,0,.65-.38c-.66-1.14-1.28-2.3-1.9-3.45-.37-.68-.73-1.37-1.08-2.05-.19-.39-.81-1.28-.72-1.74s1.92-.72,2.33-.82l4-.91a15.59,15.59,0,0,1,3.25-.57c1,0,1.34.73,1.77,1.44s.71,1.18,1.06,1.78c.67,1.13,1.34,2.27,2,3.4.2.32.22.3.09.74s-.42.57-.91.7l-1.73.43-.88.21-3.94,1-1.26.31a4,4,0,0,1-1,.23,1.85,1.85,0,0,1-1.68-1.37c-.16-.45-.89-.26-.73.2Z"/><path class="cls-2" d="M251.69,585.45a2.68,2.68,0,0,0,2,1.88,4.24,4.24,0,0,0,1.8-.26l4-1a36.36,36.36,0,0,0,4.17-1.06c.89-.34,1.45-1.12,1-2-.31-.58-.69-1.13-1-1.7-.84-1.4-1.66-2.82-2.52-4.21a2.39,2.39,0,0,0-1.84-1.4,6.31,6.31,0,0,0-1.93.19c-2.58.5-5.18,1.06-7.73,1.72-2,.52-.51,2.69.08,3.82.86,1.65,1.75,3.3,2.67,4.92a.38.38,0,0,0,.65-.38c-.65-1.14-1.28-2.3-1.9-3.46-.36-.68-.72-1.36-1.07-2-.2-.38-.82-1.27-.73-1.73s1.92-.73,2.33-.82c1.34-.31,2.69-.62,4-.91a15,15,0,0,1,3.25-.57c1,0,1.34.72,1.77,1.44s.71,1.18,1.06,1.77c.68,1.14,1.34,2.28,2,3.4.2.32.23.31.09.75s-.42.56-.91.69-1.15.29-1.73.43l-.87.22-3.95,1-1.26.31a4.46,4.46,0,0,1-1,.22,1.84,1.84,0,0,1-1.68-1.36c-.16-.46-.89-.26-.72.19Z"/><path class="cls-2" d="M84.28,635.49a2.73,2.73,0,0,0,2,1.88,4.14,4.14,0,0,0,1.8-.27l3.94-1a32.79,32.79,0,0,0,4.18-1.06c.88-.34,1.45-1.11,1-2-.31-.58-.7-1.13-1-1.69-.83-1.41-1.65-2.82-2.51-4.21a2.42,2.42,0,0,0-1.84-1.41,6.63,6.63,0,0,0-1.93.19c-2.59.5-5.19,1.06-7.74,1.72-2,.52-.5,2.69.08,3.82q1.29,2.49,2.68,4.92a.37.37,0,0,0,.64-.38c-.65-1.14-1.27-2.3-1.9-3.45-.36-.69-.72-1.37-1.07-2.06-.19-.38-.81-1.27-.72-1.73s1.92-.72,2.32-.82l4-.91a15.8,15.8,0,0,1,3.26-.57c1,0,1.33.72,1.77,1.44s.7,1.18,1.06,1.77c.67,1.14,1.34,2.28,2,3.4.2.33.23.31.1.75s-.43.57-.91.7l-1.73.43-.88.21-3.94,1-1.26.31a4.19,4.19,0,0,1-1,.23A1.89,1.89,0,0,1,85,635.29c-.16-.45-.88-.26-.72.2Z"/><path class="cls-2" d="M100.24,632.29a2.71,2.71,0,0,0,2,1.88,4.29,4.29,0,0,0,1.8-.26l3.94-1a36.53,36.53,0,0,0,4.18-1.06c.89-.34,1.45-1.12,1-2-.31-.58-.7-1.13-1-1.7-.84-1.4-1.66-2.82-2.52-4.21a2.41,2.41,0,0,0-1.84-1.4,6.31,6.31,0,0,0-1.93.19c-2.58.5-5.19,1.06-7.73,1.72-2,.52-.51,2.69.08,3.82.86,1.65,1.74,3.3,2.67,4.92a.38.38,0,0,0,.65-.38c-.66-1.14-1.28-2.3-1.9-3.46-.37-.68-.73-1.36-1.08-2.05-.19-.38-.81-1.27-.72-1.73s1.92-.73,2.33-.82c1.34-.31,2.69-.62,4-.91a15,15,0,0,1,3.25-.57c1,0,1.33.72,1.77,1.44s.71,1.18,1.06,1.77c.67,1.14,1.34,2.28,2,3.4.2.32.23.31.1.75s-.42.56-.91.69-1.15.29-1.73.43l-.88.22-3.94,1-1.26.31a4.6,4.6,0,0,1-1,.22,1.84,1.84,0,0,1-1.68-1.37c-.16-.45-.89-.25-.73.2Z"/><path class="cls-2" d="M95.28,646.49a2.73,2.73,0,0,0,2,1.88,4.14,4.14,0,0,0,1.8-.27l3.94-1a32.79,32.79,0,0,0,4.18-1.06c.88-.34,1.45-1.11,1-2-.31-.58-.7-1.13-1-1.69-.83-1.41-1.65-2.82-2.51-4.21a2.42,2.42,0,0,0-1.84-1.41,6.63,6.63,0,0,0-1.93.19c-2.59.5-5.19,1.06-7.74,1.72-2,.52-.5,2.69.08,3.82q1.29,2.49,2.68,4.92a.37.37,0,0,0,.64-.38c-.65-1.14-1.27-2.3-1.9-3.45-.36-.69-.72-1.37-1.07-2.06-.19-.38-.81-1.27-.72-1.73s1.92-.72,2.32-.82l4-.91a15.8,15.8,0,0,1,3.26-.57c1,0,1.33.72,1.77,1.44s.7,1.18,1.06,1.77c.67,1.14,1.34,2.28,2,3.4.2.33.23.31.1.75s-.43.57-.91.7l-1.73.43-.88.21-3.94,1-1.26.31a4.19,4.19,0,0,1-1,.23A1.89,1.89,0,0,1,96,646.29c-.16-.45-.88-.26-.72.2Z"/><path class="cls-2" d="M111.24,643.29a2.71,2.71,0,0,0,2,1.88,4.29,4.29,0,0,0,1.8-.26l3.94-1a36.53,36.53,0,0,0,4.18-1.06c.89-.34,1.45-1.12,1-2-.31-.58-.7-1.13-1-1.7-.84-1.4-1.66-2.82-2.52-4.21a2.41,2.41,0,0,0-1.84-1.4,6.31,6.31,0,0,0-1.93.19c-2.58.5-5.19,1.06-7.73,1.72-2,.52-.51,2.69.08,3.82.86,1.65,1.74,3.3,2.67,4.92a.38.38,0,0,0,.65-.38c-.66-1.14-1.28-2.3-1.9-3.46-.37-.68-.73-1.36-1.08-2.05-.19-.38-.81-1.27-.72-1.73s1.92-.73,2.33-.82c1.34-.31,2.69-.62,4-.91a15,15,0,0,1,3.25-.57c1,0,1.33.72,1.77,1.44s.71,1.18,1.06,1.77c.67,1.14,1.34,2.28,2,3.4.2.32.23.31.1.75s-.42.56-.91.69-1.15.29-1.73.43l-.88.22-3.94,1-1.26.31a4.6,4.6,0,0,1-1,.22,1.84,1.84,0,0,1-1.68-1.37c-.16-.45-.89-.25-.73.2Z"/><path class="cls-2" d="M127.24,639.29a2.71,2.71,0,0,0,2,1.88,4.29,4.29,0,0,0,1.8-.26l3.94-1a36.53,36.53,0,0,0,4.18-1.06c.89-.34,1.45-1.12,1-2-.31-.58-.7-1.13-1-1.7-.84-1.4-1.66-2.82-2.52-4.21a2.41,2.41,0,0,0-1.84-1.4,6.31,6.31,0,0,0-1.93.19c-2.58.5-5.19,1.06-7.73,1.72-2,.52-.51,2.69.08,3.82.86,1.65,1.74,3.3,2.67,4.92a.38.38,0,0,0,.65-.38c-.66-1.14-1.28-2.3-1.9-3.46-.37-.68-.73-1.36-1.08-2.05-.19-.38-.81-1.27-.72-1.73s1.92-.73,2.33-.82c1.34-.31,2.69-.62,4-.91a15,15,0,0,1,3.25-.57c1,0,1.33.72,1.77,1.44s.71,1.18,1.06,1.77c.67,1.14,1.34,2.28,2,3.4.2.32.23.31.1.75s-.42.56-.91.69-1.15.29-1.73.43l-.88.22-3.94,1-1.26.31a4.6,4.6,0,0,1-1,.22,1.84,1.84,0,0,1-1.68-1.37c-.16-.45-.89-.25-.73.2Z"/><path class="cls-2" d="M207.75,601.53a43.8,43.8,0,0,0,3.76,7.3.37.37,0,0,0,.65-.37,42.2,42.2,0,0,1-3.68-7.13c-.16-.45-.88-.26-.73.2Z"/><path class="cls-2" d="M243.87,600.55a2.71,2.71,0,0,0,2,1.88,4.22,4.22,0,0,0,1.79-.26c1.32-.34,2.63-.65,4-1a34,34,0,0,0,4.17-1.07c.89-.34,1.46-1.11,1-2-.3-.58-.69-1.14-1-1.7-.84-1.4-1.65-2.82-2.51-4.21a2.44,2.44,0,0,0-1.84-1.41,7,7,0,0,0-1.93.19c-2.59.51-5.19,1.06-7.74,1.73-2,.51-.5,2.68.08,3.81.86,1.66,1.75,3.31,2.67,4.93a.38.38,0,0,0,.65-.38c-.65-1.15-1.28-2.3-1.9-3.46-.36-.68-.72-1.36-1.07-2.05-.2-.39-.81-1.28-.72-1.73s1.92-.73,2.32-.82c1.35-.31,2.69-.62,4-.91a15.16,15.16,0,0,1,3.26-.57c1,0,1.33.72,1.76,1.43s.71,1.19,1.06,1.78c.68,1.13,1.34,2.27,2,3.4.2.32.23.3.1.75s-.43.56-.91.69l-1.73.43-.88.21-3.95,1c-.42.1-.84.19-1.26.31a4.51,4.51,0,0,1-.95.22,1.86,1.86,0,0,1-1.69-1.37c-.16-.45-.88-.26-.72.2Z"/><path class="cls-2" d="M259.83,597.36a2.73,2.73,0,0,0,2,1.88,4.29,4.29,0,0,0,1.8-.27l3.94-1a36.53,36.53,0,0,0,4.18-1.06c.89-.34,1.45-1.11,1-2-.31-.58-.7-1.13-1-1.69-.83-1.41-1.65-2.82-2.51-4.21a2.42,2.42,0,0,0-1.84-1.41,6.63,6.63,0,0,0-1.93.19c-2.59.5-5.19,1.06-7.74,1.72-2,.52-.5,2.69.09,3.82.86,1.66,1.74,3.3,2.67,4.92a.37.37,0,0,0,.64-.38c-.65-1.14-1.27-2.3-1.89-3.46-.37-.68-.73-1.36-1.08-2-.19-.38-.81-1.27-.72-1.73s1.92-.72,2.32-.82l4-.91a15.8,15.8,0,0,1,3.26-.57c1,0,1.33.72,1.77,1.44s.7,1.18,1.06,1.77c.67,1.14,1.34,2.28,2,3.4.2.33.23.31.1.75s-.42.57-.91.7l-1.73.42-.88.22-3.94,1-1.26.31a4,4,0,0,1-1,.22,1.86,1.86,0,0,1-1.69-1.36c-.16-.45-.88-.26-.72.2Z"/><path class="cls-2" d="M115.29,615.4a27,27,0,0,1-3,1.08,1.09,1.09,0,0,1-1.32-.61c-.27-.42-.51-.87-.76-1.3l-1.67-2.87c-.21-.36-.69-.91-.7-1.34,0-.59.78-.77,1.2-1a28.3,28.3,0,0,1,5.91-1.83,4,4,0,0,1,1.59-.22c.37.11.78.69,1,1a6.45,6.45,0,0,1,1.11,2.53c.11.47.83.27.73-.2a7.06,7.06,0,0,0-1-2.41,3.81,3.81,0,0,0-1.58-1.6,2.61,2.61,0,0,0-1.24.05c-.52.08-1,.18-1.54.3a29.53,29.53,0,0,0-2.93.81,28.51,28.51,0,0,0-2.82,1.12c-.72.32-1.39.73-1.17,1.63a11.22,11.22,0,0,0,1.39,2.57l1.68,2.87c.45.77,1,1.39,2,1.26a6.93,6.93,0,0,0,1.49-.45l1.87-.68c.45-.17.25-.89-.2-.73Z"/><path class="cls-2" d="M124.12,607.43A18.1,18.1,0,0,1,123,604.6c0-.11-.06-.14,0-.21a.91.91,0,0,1,.26-.13l.7-.32q.69-.32,1.41-.6a38,38,0,0,1,5.61-1.77c.47-.11.27-.83-.2-.72a39.1,39.1,0,0,0-6.49,2.13c-.52.22-1,.45-1.55.7a.76.76,0,0,0-.51.9,15.1,15.1,0,0,0,1.25,3.23c.21.43.86.05.65-.38Z"/><path class="cls-2" d="M131.66,597a29.55,29.55,0,0,1-6.43,2l.42.17-2.41-4.26c-.21-.36-.42-.72-.62-1.09s-.21-.5.28-.65l2.38-.71c1.51-.44,3-.87,4.55-1.29.44-.12.89-.33,1.26,0a7.88,7.88,0,0,1,.7.83c.51.63,1,1.3,1.42,2,.26.41.91,0,.64-.38-.51-.79-1.07-1.56-1.66-2.3-.45-.54-.86-1.14-1.64-1.09a7.85,7.85,0,0,0-1.35.34l-1.52.43c-1,.27-2,.55-2.92.84l-1.41.41a8.52,8.52,0,0,0-1.3.41c-.6.31-.39,1-.13,1.44,1,1.83,2.06,3.63,3.09,5.45a.38.38,0,0,0,.42.17A30.15,30.15,0,0,0,132,597.6c.44-.2.06-.85-.38-.65Z"/><path class="cls-2" d="M153.47,585.06a25.16,25.16,0,0,1,5.74-2,9,9,0,0,1,1.38-.23,1,1,0,0,1,1,.69,5.57,5.57,0,0,0,1.2,2.15.38.38,0,0,0,.53-.53,3.48,3.48,0,0,1-.85-1.35,3.53,3.53,0,0,0-.5-1.12c-.61-.79-1.62-.6-2.48-.43a25.62,25.62,0,0,0-6.45,2.15c-.44.21-.06.86.38.65Z"/><path class="cls-2" d="M168.42,584.6a9.08,9.08,0,0,1-1.19-2.66l-.26.46a53.75,53.75,0,0,1,10.94-2.87c.67-.1.82.17,1.08.72l.66,1.41,1.26,2.68.66,1.41c.18.38.73,1.12.42,1.47a4.35,4.35,0,0,1-1.17.55l-1.42.67c-.44.2-.06.85.38.64l1.55-.73a5.61,5.61,0,0,0,1.3-.64c.64-.58,0-1.45-.28-2.06l-1.59-3.38-.79-1.69a6.79,6.79,0,0,0-.75-1.5c-.54-.62-1.54-.27-2.22-.16q-1.73.29-3.42.69a55.1,55.1,0,0,0-6.81,2.06.38.38,0,0,0-.26.46,9.52,9.52,0,0,0,1.26,2.84c.26.41.91,0,.65-.37Z"/><path class="cls-2" d="M202.29,589.82c2.08-.54,4.15-1.05,6.23-1.55l1.6-.37c.61-.14,1.08-.36,1.56.18a9.47,9.47,0,0,1,.84,1.37l.85,1.37,1.63,2.63c.25.41.89,1.06.42,1.51a2.65,2.65,0,0,1-.73.29l-.73.3a46.57,46.57,0,0,1-6,2,.38.38,0,0,0,.2.73,54.22,54.22,0,0,0,7.2-2.49c.86-.35,1.43-.71.9-1.67-.62-1.14-1.37-2.22-2.05-3.32s-1.26-2.22-2-3.24c-.61-.84-1.41-.59-2.31-.38-2.62.61-5.22,1.25-7.83,1.92a.38.38,0,0,0,.2.73Z"/><path class="cls-2" d="M199.84,590.63c1-.32,2-.63,3-.91a.37.37,0,0,0-.2-.72c-1,.28-2,.58-3.05.91-.46.14-.26.87.2.72Z"/><path class="cls-2" d="M213.66,600.78c1.78-.59,3.57-1.13,5.39-1.6.53-.14,1-.34,1.45.15.29.33.57.68.85,1,.59.71,1.17,1.44,1.74,2.17s1.14,1.48,1.69,2.23c.27.36.53.71.79,1.08.14.2.37.42.12.66a3,3,0,0,1-.69.25l-5.3,1.9c-.45.17-.25.89.2.73l3.23-1.16a24.75,24.75,0,0,0,3-1.1c.87-.46.34-1.28-.08-1.86-.67-.93-1.35-1.84-2-2.75s-1.36-1.74-2.06-2.59c-.5-.61-1.11-1.74-2-1.7a7.37,7.37,0,0,0-1.46.34l-1.65.45c-1.13.33-2.26.68-3.38,1-.46.16-.26.88.2.73Z"/><path class="cls-2" d="M247.58,619.84c11-2.83,21.9-6.36,33-9,.47-.11.27-.83-.2-.72-11.1,2.64-21.95,6.17-33,9a.37.37,0,0,0,.2.72Z"/><path class="cls-2" d="M231.29,621.15c-.24.12-1.07-.25-1.32-.34a2.38,2.38,0,0,1-1.52-1c-.5-.91-.93-1.86-1.39-2.79a27.42,27.42,0,0,1-1.6-3.21c-.23-.68-.43-1.55.39-1.85.47-.17,1-.26,1.46-.39l3.51-.85c2.11-.49,4.22-.95,6.34-1.41,8.5-1.85,16.91-4.09,25.36-6.17,4.68-1.14,9.36-2.25,14.06-3.26.47-.1.27-.82-.2-.72-9.73,2.09-19.38,4.58-29,7-5,1.26-10.06,2.32-15.09,3.45l-3.75.88a16.17,16.17,0,0,0-3.24.89c-1.72.83-.66,2.39,0,3.65l1.92,3.86a5.05,5.05,0,0,0,1.27,2.07c.69.48,2.4,1.29,3.24.87.43-.21.05-.86-.38-.65Z"/><path class="cls-2" d="M275,580.85a17.19,17.19,0,0,1-3.2,1.07,16.06,16.06,0,0,1-1.82.3,1.54,1.54,0,0,1-.77,0c-.26-.11-.34-.33-.48-.58-.59-1-1.17-2-1.75-3.07s-1.23-2-1.72-3c-.37-.78.66-.88,1.18-1l1.86-.52,3.49-1,1.63-.45c.53-.15,1.29-.45,1.77,0a3.42,3.42,0,0,1,.69,1.37l.69,1.69c.18.44.9.25.72-.2a20.91,20.91,0,0,0-1.24-3,1.82,1.82,0,0,0-2.05-.78c-1.12.2-2.24.6-3.34.91l-3.61,1c-.56.15-1.13.28-1.68.47a1.43,1.43,0,0,0-.89.65c-.4.81.48,1.86.86,2.52l1.81,3.17.81,1.44a3,3,0,0,0,.75,1A2,2,0,0,0,270,583c.58-.07,1.15-.15,1.71-.27a17.61,17.61,0,0,0,3.59-1.2c.44-.19.06-.84-.38-.64Z"/><path class="cls-2" d="M275.79,585.25l-4.24,1.45a.38.38,0,0,0-.27.36,5.73,5.73,0,0,0,1,2.82l1.63,3,.82,1.53a2.62,2.62,0,0,0,.66.95,1.29,1.29,0,0,0,1.07.09c.56-.14,1.11-.31,1.66-.46l3.45-.94a28.63,28.63,0,0,0,3.17-.89,1.2,1.2,0,0,0,.76-1.53,15.59,15.59,0,0,0-1.54-3c-.23-.43-.88-.05-.65.37.42.78.87,1.54,1.26,2.33a.89.89,0,0,1,.13.76c-.1.36-.19.34-.52.45s-.85.23-1.28.35l-5,1.36-1.15.31a1.14,1.14,0,0,1-.81.06c-.36-.1-.36-.2-.52-.49l-1.26-2.35-1.25-2.35a5,5,0,0,1-.91-2.44l-.28.36L276,586c.46-.16.26-.88-.2-.73Z"/><path class="cls-2" d="M286.66,586.46a15.68,15.68,0,0,0,1.07,2.27,6.58,6.58,0,0,0,1.38,1.84,1.7,1.7,0,0,0,1.69.19c.94-.29,1.86-.6,2.79-.91,1.75-.57,3.55-1.09,5.27-1.74a1.38,1.38,0,0,0,1.06-1.28,2.36,2.36,0,0,0-.95-1.68c-.35-.33-.88.2-.53.53s1.2,1.31.23,1.71c-.62.25-1.28.43-1.92.64l-3.82,1.25-1.86.6a8,8,0,0,1-.83.26,1,1,0,0,1-.94-.44,11.87,11.87,0,0,1-1.92-3.44c-.17-.45-.89-.25-.72.2Z"/><path class="cls-2" d="M288.69,583.09a14.92,14.92,0,0,1,4.66-1.34.39.39,0,0,0,.37-.38c0-.18-.17-.4-.37-.37a15.91,15.91,0,0,0-5,1.44c-.43.2-.05.85.38.65Z"/><path class="cls-2" d="M282,564.8c-.84-1.71-1.65-3.45-2.37-5.21a.73.73,0,0,1,.07-.82,2.31,2.31,0,0,1,.67-.23l1.31-.39,2.86-.84c.9-.27,1.8-.55,2.71-.8a1.15,1.15,0,0,1,1.43.55c.26.37.49.76.73,1.13q1.61,2.52,3.13,5.06c.25.42.9,0,.65-.37-1.29-2.14-2.54-4.34-4-6.38a1.67,1.67,0,0,0-1.85-.79c-1.19.24-2.37.69-3.54,1l-3.51,1c-.63.18-1.49.39-1.59,1.16a2.69,2.69,0,0,0,.38,1.29c.23.56.47,1.11.72,1.67.49,1.1,1,2.19,1.53,3.28.21.43.86.05.65-.38Z"/><path class="cls-2" d="M296.82,562.52c-1.06-1.57-2.18-3.12-3.18-4.74-.5-.82-.67-1.66.15-2.33a8.64,8.64,0,0,1,2.26-1.11,29.71,29.71,0,0,1,5.12-1.58c.65-.13.94.19,1.33.64s.54.66.78,1a15.19,15.19,0,0,1,1.32,2.28c.2.44.85,0,.64-.38a14.61,14.61,0,0,0-1.62-2.71c-.47-.61-1.06-1.57-1.92-1.64a5.14,5.14,0,0,0-1.6.29c-.5.12-1,.26-1.5.41-1.07.32-2.13.7-3.16,1.12-1.43.59-3.45,1.44-2.92,3.37a10.39,10.39,0,0,0,1.64,2.75l2,3c.27.4.92,0,.65-.38Z"/><path class="cls-2" d="M309.71,554.66a7.14,7.14,0,0,1-.85-1,3.25,3.25,0,0,1-.3-.51.49.49,0,0,1-.05-.47l.16-.07A4.68,4.68,0,0,1,310,552l1.21-.47a47.68,47.68,0,0,1,5-1.52c.87-.22,1.63-.31,2.14.56a12,12,0,0,1,.68,1.66,15.19,15.19,0,0,0,2.62,3.84c.31.37.84-.16.53-.53a19.5,19.5,0,0,1-1.95-2.59,21.8,21.8,0,0,1-1-2.37,2.45,2.45,0,0,0-1.22-1.37,4.48,4.48,0,0,0-2.72.27,47.88,47.88,0,0,0-6.15,2.09c-.6.25-1.5.46-1.42,1.27a4.77,4.77,0,0,0,1.49,2.34c.34.35.87-.18.54-.53Z"/><path class="cls-2" d="M334,555.11l1.47-.49a.38.38,0,0,0,.27-.36,5.18,5.18,0,0,0-1.41-2.74c-.72-1-1.47-2-2.24-2.92-.6-.74-1.27-1.88-2.25-2.17s-1.82.48-2.65.89a19.12,19.12,0,0,1-3.34,1.07c-.73.21-2,.47-2.36,1.27s.59,1.94,1,2.62c.67,1,1.38,2.06,2.12,3.05.29.38.94,0,.65-.38-.57-.76-1.12-1.53-1.65-2.32-.25-.38-.5-.76-.74-1.15s-1-1.23-.63-1.66,1-.46,1.35-.58.8-.23,1.2-.34a17.78,17.78,0,0,0,2.35-.74c.69-.3,1.69-1.26,2.47-1a2.77,2.77,0,0,1,1.11,1c.33.39.65.79,1,1.19.62.77,1.23,1.56,1.81,2.36s1.44,1.64,1.46,2.57l.28-.36-1.47.49c-.45.15-.26.88.2.72Z"/><path class="cls-2" d="M293.14,598.53a7.7,7.7,0,0,1-1.82-2.12c-.16-.29-.61-.9-.43-1.21.07-.12.72-.21.87-.25l.74-.22,6.34-1.86c.26-.08.55-.24.81,0s.27.5.38.68l.8,1.48,1.56,2.85c.21.38.91,1.31.55,1.67a5.28,5.28,0,0,1-1.49.66l-3.09,1.28c-.44.19-.24.91.2.73l3.21-1.33c.64-.27,1.76-.51,2.05-1.25s-.58-1.77-.91-2.37l-1.68-3.07c-.27-.49-.53-1-.81-1.48-.17-.32-.35-.67-.75-.74a2.94,2.94,0,0,0-1.16.24l-1.86.55-3.35,1-1.62.48a4.54,4.54,0,0,0-1.32.43c-.68.47-.07,1.45.22,2a8.23,8.23,0,0,0,2,2.45c.38.3.91-.23.54-.53Z"/><path class="cls-2" d="M304.41,590.34a2,2,0,0,0-1.43.49,1,1,0,0,0-.21,1.21,8.44,8.44,0,0,0,1.11,1.43l1.21,1.49c.81,1,1.59,2,2.42,3a1.07,1.07,0,0,0,1.29.33c.56-.22,1.11-.49,1.67-.73s.06-.84-.38-.65l-1.23.54c-.16.07-.43.25-.62.18s-.31-.33-.41-.46L306,594.87l-1.8-2.21-.45-.55c-.1-.13-.31-.32-.32-.51,0-.45.7-.49,1-.51.48,0,.48-.79,0-.75Z"/><path class="cls-3" d="M305.48,221.48a8.28,8.28,0,0,1-.5,4.5c-1.35,3.16-4.48,4.4-6,5-2.08.82-2.16.28-8,1-4.91.6-6.66,1.2-8,0a3,3,0,0,1-1-3c.44-1.25,2.21-1.67,4-2,5-.93,7.46-.67,10-1,6.67-.86,11.11-5.41,13-8,.78-1.07,3.12-4.27,2-6-.71-1.11-2.64-1.31-4-1-2,.45-2.48,1.93-5,4a24.29,24.29,0,0,1-5,3,41.54,41.54,0,0,1-8,3c-3.22.91-6.15,1.27-12,2-4.58.57-6.12.6-8,0-.58-.18-4.91-1.56-5-4-.07-1.65,1.82-2.89,2-3,2.34-1.5,5-.48,8,0,4.62.73,8.25-.12,12-1a39.54,39.54,0,0,0,13-6,30.57,30.57,0,0,0,7-6c2-2.36,2.82-4.12,3-6,.09-.92.29-3-1-4-1.44-1.12-3.73-.12-4,0-2.11,1-2.57,2.78-4,5a21.31,21.31,0,0,1-8,7,29.55,29.55,0,0,1-9,3c-1.76.38-1,.1-8,1-5.17.66-6.88,1-9,0-.6-.28-2.83-1.3-3-3-.13-1.25.92-2.42,3-4a42.73,42.73,0,0,1,9-5c2.44-1.19,7.45-3.63,10-8,2.2-3.78,1.75-7.61,1-14-1-8.48-3-7.47-4-16-.52-4.43-.36-8-3-10-.21-.16-2.2-1.65-4-1s-2.59,3.43-3,6c-1.15,7.25-.26,13.73,1,21,1.85,10.7,2.71,12.84,4,15,1.79,3,4.36,7.27,9,8,5,.78,10-2.9,12-7,1.72-3.48,1-6.67,0-12-.74-4-3.63-19.66-4-31-.29-8.93,1.23-7.33,1-16-.2-7.3-.67-19.3-8-31-3-4.76-7.74-12.35-17-16-8-3.16-15.38-1.79-25,0-6.66,1.24-12,2.23-18,6a41.68,41.68,0,0,0-15,17,46.2,46.2,0,0,0-5,22,45.73,45.73,0,0,0,5,20c3.43,6.5,8.29,10.67,18,19,8.11,7,11.05,8.22,18,15,2.32,2.26,6.71,5.25,10,11a33.28,33.28,0,0,1,3,7"/><path class="cls-3" d="M279,194c-2.52-2.6-8-6.34-12-11-8.71-10.2-10.88-14.48-12-17s-5.65-12.71-2-16a5.38,5.38,0,0,1,4-1c4.82.31,8,5.72,10,9,1,1.61,4.6,8,5,9"/></g></svg>