<svg id="Layer_1" data-name="Layer 1" xmlns="http://www.w3.org/2000/svg" viewBox="0 0 200 190">
  <defs>
    <style>
      .cls-1 {
        fill: #f9f9f9;
      }
    </style>
  </defs>
  <g>
    <path class="cls-1" d="M11.64,162.26c0-.74-.45-112.4.28-112.77s78.38,58,86.88,64.41a2.08,2.08,0,0,0,3,0c11.44-8.59,86.43-64.7,86.91-64.46s.27,112,.25,112.82c-.27.46-2.34.56-2.91.56C128.87,162.82,12.47,163.21,11.64,162.26Z"/>
    <path class="cls-1" d="M12,37.5H188.44C185.87,40,107,98.75,102.17,102.42c-1.66,1.27-2.1,1.28-3.75,0C92.84,98.15,14.93,39.79,12,37.5Z"/>
  </g>
</svg>
