<svg id="Layer_1" data-name="Layer 1" xmlns="http://www.w3.org/2000/svg" viewBox="0 0 260 260">
  <defs>
    <style>
      .cls-1 {
        fill: #2f3032;
      }

      .cls-2 {
        fill: #fdfdfd;
      }

      .cls-3 {
        fill: #a1a2a2;
      }
    </style>
  </defs>
  <g>
    <path class="cls-1" d="M259.59-.16q0,128.49.05,257c0,2.18-.43,2.67-2.37,2.67Q128.6,259.41,0,259.45A6.86,6.86,0,0,1-.3,256.3q0-126.59,0-253.18c0-4-.37-3.56,3.18-3.56q127,0,253.94,0C257.73-.43,258.7-.7,259.59-.16Z"/>
    <path class="cls-2" d="M83.81,37.23c5.2,0,10.41.13,15.61,0,2.53-.09,3.68.73,4.1,3.28,1.73,10.56,3.62,21.1,5.43,31.66,2,11.51,3.92,23,5.91,34.54q4.15,24,8.35,48,4.58,26.2,9.14,52.42c.62,3.57.35,4-3.23,4-7.7,0-15.4-.06-23.09.05-2.35,0-3.27-.86-3.54-3.12-.56-4.62-1.38-9.2-2-13.81-.23-1.79-.81-2.67-2.83-2.66q-14.79.14-29.59,0c-1.83,0-2.17.82-2.38,2.24-.69,4.71-1.48,9.41-2.11,14.13-.31,2.36-1.37,3.28-3.85,3.24-7.8-.14-15.6-.13-23.4,0-2.61,0-3.17-.89-2.72-3.29q4.36-23.61,8.58-47.25,5.1-28.26,10.16-56.52,3.91-21.72,7.88-43.42C61.5,53.76,62.88,47,64,40.13c.37-2.39,1.37-3,3.6-2.94C73,37.32,78.39,37.23,83.81,37.23Z"/>
    <path class="cls-2" d="M177.86,150.26q2.31-13.26,4.61-26.46,5.13-29.08,10.3-58.16c1.48-8.42,3-16.84,4.3-25.28.38-2.39,1.32-3.23,3.79-3.18,7.81.15,15.62.17,23.42,0,2.84-.07,3.61.79,3.05,3.5-2,9.54-3.84,19.09-5.74,28.64q-5.81,29.11-11.6,58.24-6.75,33.88-13.47,67.78c-.82,4.14-1.64,8.27-2.37,12.43-.38,2.23-1.31,3.34-3.84,3.3q-13-.21-26,0c-2.37,0-3.26-1-3.68-3.08q-6.27-31.5-12.62-63-5.18-25.77-10.4-51.53-5.42-26.88-10.87-53.75c-.39-1.93.3-2.51,2.15-2.5q12.69.07,25.37,0c1.87,0,2.73.67,3,2.5,1.86,10.55,3.78,21.09,5.67,31.63q4,22.52,8,45l5.7,31.95C176.81,149,176.58,149.9,177.86,150.26Z"/>
    <path class="cls-1" d="M84.23,90.73l6.12,42c1.45,9.94,2.89,19.88,4.39,29.82.26,1.76-.34,2.3-2,2.29-6.49-.06-13-.09-19.48,0-2,0-2.07-.93-1.83-2.41,1.34-8.22,2.74-16.42,4-24.65,2.3-15.27,5.24-30.45,7.08-45.79C82.88,91.39,82.58,89.71,84.23,90.73Z"/>
    <path class="cls-3" d="M98.72,99.29c-.92-.27-1,.63-1.43,1a6.14,6.14,0,0,1-.06-1.28c.09-.64.08-1.64,1-1.49S98.8,98.63,98.72,99.29Z"/>
  </g>
</svg>
