<svg id="Layer_1" data-name="Layer 1" xmlns="http://www.w3.org/2000/svg" viewBox="0 0 200 190">
  <defs>
    <style>
      .cls-1 {
        fill: #f9f9f9;
      }
    </style>
  </defs>
  <path class="cls-1" d="M148.69,34.5H50.35A17.19,17.19,0,0,0,33.16,51.68v97.64A17.19,17.19,0,0,0,50.35,166.5h98.34a17.18,17.18,0,0,0,17.18-17.18V51.68A17.18,17.18,0,0,0,148.69,34.5ZM83.25,131.27a3.4,3.4,0,0,1-3.4,3.4H70.27a3.4,3.4,0,0,1-3.4-3.4V85.65a3.41,3.41,0,0,1,3.4-3.41h9.58a3.41,3.41,0,0,1,3.4,3.41Zm-8-55.34a9.6,9.6,0,1,1,9.6-9.6A9.59,9.59,0,0,1,75.29,75.93Zm68.11,58.51H127V105.9c-.21-7.49-7.47-17.53-17.79-1.33v29.87H92.85V82h16.38v5.55a15.24,15.24,0,0,1,3.83-3.26c15.59-10,25.19,1.22,26.59,3.33,2.9,4,3.65,11.22,3.66,15.68h.09Z"/>
</svg>
