<svg id="Layer_1" data-name="Layer 1" xmlns="http://www.w3.org/2000/svg" viewBox="0 0 200 190">
  <defs>
    <style>
      .cls-1 {
        fill: #fff;
      }
    </style>
  </defs>
  <path class="cls-1" d="M185.09,6.5H14.91C6.68,6.5,0,12.82,0,20.63V172.37c0,7.81,6.68,14.13,14.91,14.13H185.09c8.23,0,14.91-6.32,14.91-14.13V20.63C200,12.82,193.32,6.5,185.09,6.5ZM19,35.78c0-7.8,6.68-14.12,14.91-14.12H168.09C176.32,21.66,183,28,183,35.78V59.55H19ZM168.09,169.26H33.91c-8.23,0-14.91-6.33-14.91-14.13V77.55H183v77.58C183,162.93,176.32,169.26,168.09,169.26Z"/>
  <g>
    <ellipse class="cls-1" cx="39.5" cy="37.5" rx="9.5" ry="7.5"/>
    <ellipse class="cls-1" cx="67.5" cy="37.5" rx="9.5" ry="7.5"/>
    <ellipse class="cls-1" cx="91.5" cy="37.5" rx="9.5" ry="7.5"/>
  </g>
</svg>
