<svg id="Layer_1" data-name="Layer 1" xmlns="http://www.w3.org/2000/svg" viewBox="0 0 200 190">
  <defs>
    <style>
      .cls-1 {
        fill: #f9f9f9;
      }
    </style>
  </defs>
  <path class="cls-1" d="M81.65,147.83c-30-.55-40.2-1.05-46.49-2.34a20.38,20.38,0,0,1-10.66-5.55c-2.1-2.1-3.76-5.3-5.06-9.74-1.11-3.7-1.54-6.78-2.15-14.3-.95-17-1.17-30.86,0-46.37,1-8.56,1.43-18.73,7.82-24.66a21.09,21.09,0,0,1,10.49-5.3c6.16-1.17,32.42-2.1,59.61-2.1s53.46.93,59.63,2.1a20.52,20.52,0,0,1,12.26,7.27c5.84,9.19,5.94,20.61,6.54,29.54.24,4.25.24,28.42,0,32.67-.93,14.12-1.67,19.11-3.76,24.29a18,18,0,0,1-4.32,6.91,20.67,20.67,0,0,1-11,5.61c-25.92,1.95-47.94,2.37-72.93,2Zm39.71-56.72C106.93,83.4,93.12,76.25,79,68.86v44.26c14.86-8.07,30.52-15.47,42.42-22.07l-.06.06Z"/>
</svg>
